<svg xmlns="http://www.w3.org/2000/svg" xmlns:xlink="http://www.w3.org/1999/xlink" id="_x32__1_" width="498.8" height="501.3" x="0" style="enable-background:new 0 0 498.8 501.3" y="0" version="1.1" viewBox="0 0 498.8 501.3" xml:space="preserve"><style type="text/css">.st0{fill:#4481f8}.st1{fill:#1a237e}.st2{clip-path:url(#SVGID_2_);fill:#00838f}.st3{clip-path:url(#SVGID_4_)}.st3,.st4,.st5{fill:#283593}.st4{clip-path:url(#SVGID_6_)}.st5{clip-path:url(#SVGID_8_)}.st6{fill:#ffb74d}.st7{fill:#283593}.st8{fill:#fff9c4}.st9{fill:#eef2f4}.st10{fill:#bbdefb}.st11{fill:none;stroke:#3949ab;stroke-miterlimit:10}.st12,.st13{fill:none;stroke:#c5cae9;stroke-linecap:round;stroke-linejoin:round}.st13{stroke-dasharray:0,6.7037}.st14{fill:#8c6d62}.st15{fill:#ef9426}.st16{fill:#a1887f}.st17{fill:#212121}.st18{fill:#424242}.st19{fill:#616161}.st20{fill:#795548}.st21{fill:#039be5}.st22{fill:#0288d1}.st23{fill:#90a4ae}.st24{fill:#cfd8dc}.st25{fill:#e0e0e0}.st26{fill:#ffccbc}.st27{fill:#6a1b9a}.st28{fill:#880e4f}</style><g id="Project"><g id="BG_1_"><rect width="498.8" height="501.3" class="st0"/></g><circle id="BG" cx="249.4" cy="249.6" r="247.8" class="st1"/><g id="Ground"><g><g><defs><path id="SVGID_1_" d="M514.1,500.4c0,0-38.9-66.4-114.8-74.4s-125.6,25-203.6-1s-122.6-64-240.8,7.6c0,0-47.9,30.3-47.9,67.8 L514.1,500.4L514.1,500.4z"/></defs><clipPath id="SVGID_2_"><use xlink:href="#SVGID_1_" style="overflow:visible"/></clipPath><circle cx="249.4" cy="249.6" r="247.8" class="st2"/></g></g></g><g id="Cloud_2_"><g><g><defs><path id="SVGID_3_" d="M3.6,189.4c0,0-22.5,4.1-22.5,23.5s20.7,20,42,20h23.5c0,0,38.5,2.2,38.5-19s-23-23.5-23-23.5 s-4-21.5-29-21.5S3.6,189.4,3.6,189.4z"/></defs><clipPath id="SVGID_4_"><use xlink:href="#SVGID_3_" style="overflow:visible"/></clipPath><circle cx="249.4" cy="249.6" r="247.8" class="st3"/></g></g></g><g id="Cloud_1_"><g><g><defs><path id="SVGID_5_" d="M472.1,296.8c0,0-22.5,4.1-22.5,23.5s20.7,20,42,20h23.5c0,0,38.5,2.2,38.5-19s-23-23.5-23-23.5 s-4-21.5-29-21.5S472.1,296.8,472.1,296.8z"/></defs><clipPath id="SVGID_6_"><use xlink:href="#SVGID_5_" style="overflow:visible"/></clipPath><circle cx="249.4" cy="249.6" r="247.8" class="st4"/></g></g></g><g id="Cloud"><g><g><defs><path id="SVGID_7_" d="M72.1,39.9c0,0-22.5,4.1-22.5,23.5s20.7,20,42,20h23.5c0,0,38.5,2.2,38.5-19s-23-23.5-23-23.5 s-4-21.5-29-21.5C76.5,19.4,72.1,39.9,72.1,39.9z"/></defs><clipPath id="SVGID_8_"><use xlink:href="#SVGID_7_" style="overflow:visible"/></clipPath><circle cx="249.4" cy="249.6" r="247.8" class="st5"/></g></g></g><g id="Eclipse"><ellipse id="Sun" cx="314.7" cy="149.6" class="st6" rx="85.4" ry="85.2"/><path id="Sun_Rays" d="M314.7,60.5c7.7,0,14.5,6.7,21.6,8.6c7.4,2,16.5-0.4,23,3.3c6.6,3.8,9.1,12.9,14.4,18.2 C379,96,388.2,98.5,392,105c3.7,6.5,1.4,15.6,3.4,23c1.9,7.1,8.6,13.9,8.6,21.6c0,7.7-6.7,14.5-8.6,21.6c-2,7.4,0.4,16.5-3.4,23 s-13,9.1-18.3,14.4c-5.3,5.3-7.9,14.5-14.4,18.2s-15.6,1.4-23,3.3c-7.1,1.9-13.9,8.6-21.6,8.6s-14.5-6.7-21.6-8.6 c-7.4-2-16.5,0.4-23-3.3c-6.6-3.8-9.1-12.9-14.4-18.2c-5.3-5.3-14.5-7.8-18.3-14.4c-3.7-6.5-1.4-15.6-3.4-23 c-1.9-7.1-8.6-13.9-8.6-21.6c0-7.7,6.7-14.5,8.6-21.6c2-7.4-0.4-16.5,3.4-23c3.8-6.5,13-9.1,18.3-14.4c5.3-5.3,7.9-14.5,14.4-18.2 c6.5-3.7,15.6-1.4,23-3.3C300.2,67.2,306.9,60.5,314.7,60.5z" class="st6"/><ellipse id="Moon" cx="314.7" cy="149.6" class="st1" rx="82.3" ry="82.1"/><g id="Craters"><ellipse cx="349.1" cy="114.6" class="st7" rx="12.1" ry="12.1"/><path d="M315.3,118.1c-0.8,0-1.7,0.1-2.5,0.2c-0.2-8-6.7-14.5-14.8-14.5c-8.2,0-14.8,6.6-14.8,14.8 c0,7.5,5.6,13.7,12.8,14.7c-0.4,1.5-0.6,3.1-0.6,4.7c0,11,8.9,19.9,19.9,19.9s19.9-8.9,19.9-19.9 C335.2,127,326.3,118.1,315.3,118.1z" class="st7"/><ellipse cx="362.7" cy="148.9" class="st7" rx="11.6" ry="11.6"/><ellipse cx="339.6" cy="169.5" class="st7" rx="8.1" ry="8.1"/><ellipse cx="250.8" cy="137" class="st7" rx="5.7" ry="5.7"/></g><g id="Star"><path d="M373.3,102.7c0,0,3.4-13.1,13.1-13.1c-6.4,0-19.8,0-26.3,0C370.5,89.6,373.3,102.7,373.3,102.7z" class="st8"/><path d="M373.4,76.6c0,0-2.8,13-13.1,13c6.4,0,19.9,0,26.3,0C376.8,89.6,373.4,76.6,373.4,76.6z" class="st8"/></g></g><g id="Frame"><polygon points="221.2 56.4 221.2 58.3 221.2 71.9 223.1 71.9 223.1 58.3 236.7 58.3 236.7 56.4 223.1 56.4" class="st9"/><polygon points="406 56.4 392.3 56.4 392.3 58.3 406 58.3 406 71.9 407.8 71.9 407.8 58.3 407.8 56.4" class="st9"/><polygon points="223.1 227.5 221.2 227.5 221.2 241.2 221.2 243 223.1 243 236.7 243 236.7 241.2 223.1 241.2" class="st9"/><polygon points="406 241.2 392.3 241.2 392.3 243 406 243 407.8 243 407.8 241.2 407.8 227.5 406 227.5" class="st9"/></g><g id="Empty_Slots"><path d="M236.5,283.7h-3.4c-0.2,0-0.4,0.2-0.4,0.4s0.2,0.4,0.4,0.4h3.4c0.2,0,0.4-0.2,0.4-0.4 S236.7,283.7,236.5,283.7z" class="st10"/><path d="M229.7,283.7h-3.4c-0.2,0-0.4,0.2-0.4,0.4s0.2,0.4,0.4,0.4h3.4c0.2,0,0.4-0.2,0.4-0.4 S229.9,283.7,229.7,283.7z" class="st10"/><path d="M243.2,283.7h-3.4c-0.2,0-0.4,0.2-0.4,0.4s0.2,0.4,0.4,0.4h3.4c0.2,0,0.4-0.2,0.4-0.4 S243.4,283.7,243.2,283.7z" class="st10"/><path d="M223,283.7h-1.1v-1.1c0-0.2-0.2-0.4-0.4-0.4s-0.4,0.2-0.4,0.4v1.5c0,0.2,0.2,0.4,0.4,0.4h1.5 c0.2,0,0.4-0.2,0.4-0.4S223.2,283.7,223,283.7z" class="st10"/><path d="M221.5,266.1c0.2,0,0.4-0.2,0.4-0.4v-3.4c0-0.2-0.2-0.4-0.4-0.4s-0.4,0.2-0.4,0.4v3.4 C221.1,265.9,221.3,266.1,221.5,266.1z" class="st10"/><path d="M221.5,272.8c0.2,0,0.4-0.2,0.4-0.4V269c0-0.2-0.2-0.4-0.4-0.4s-0.4,0.2-0.4,0.4v3.4 C221.1,272.6,221.3,272.8,221.5,272.8z" class="st10"/><path d="M221.5,279.5c0.2,0,0.4-0.2,0.4-0.4v-3.4c0-0.2-0.2-0.4-0.4-0.4s-0.4,0.2-0.4,0.4v3.4 C221.1,279.4,221.3,279.5,221.5,279.5z" class="st10"/><path d="M223,257.1h-1.5c-0.2,0-0.4,0.2-0.4,0.4v1.5c0,0.2,0.2,0.4,0.4,0.4s0.4-0.2,0.4-0.4v-1.1h1.1 c0.2,0,0.4-0.2,0.4-0.4S223.2,257.1,223,257.1z" class="st10"/><path d="M229.7,257.1h-3.4c-0.2,0-0.4,0.2-0.4,0.4s0.2,0.4,0.4,0.4h3.4c0.2,0,0.4-0.2,0.4-0.4 S229.9,257.1,229.7,257.1z" class="st10"/><path d="M243.2,257.1h-3.4c-0.2,0-0.4,0.2-0.4,0.4s0.2,0.4,0.4,0.4h3.4c0.2,0,0.4-0.2,0.4-0.4 S243.4,257.1,243.2,257.1z" class="st10"/><path d="M236.5,257.1h-3.4c-0.2,0-0.4,0.2-0.4,0.4s0.2,0.4,0.4,0.4h3.4c0.2,0,0.4-0.2,0.4-0.4 S236.7,257.1,236.5,257.1z" class="st10"/><path d="M247.7,275.8v3.4c0,0.2,0.2,0.4,0.4,0.4s0.4-0.2,0.4-0.4v-3.4l0,0c0-0.2-0.2-0.4-0.4-0.4 S247.7,275.6,247.7,275.8L247.7,275.8z" class="st10"/><path d="M247.7,269.1v3.4l0,0c0,0.2,0.2,0.4,0.4,0.4s0.4-0.2,0.4-0.4l0,0v-3.4l0,0c0-0.2-0.2-0.4-0.4-0.4 S247.7,268.9,247.7,269.1L247.7,269.1z" class="st10"/><path d="M263,283.7h-3.4c-0.2,0-0.4,0.2-0.4,0.4s0.2,0.4,0.4,0.4h3.4c0.2,0,0.4-0.2,0.4-0.4S263.2,283.7,263,283.7z" class="st10"/><path d="M256.3,283.7h-3.4c-0.2,0-0.4,0.2-0.4,0.4s0.2,0.4,0.4,0.4h3.4c0.2,0,0.4-0.2,0.4-0.4 S256.5,283.7,256.3,283.7z" class="st10"/><path d="M269.8,283.7h-3.4c-0.2,0-0.4,0.2-0.4,0.4s0.2,0.4,0.4,0.4h3.4c0.2,0,0.4-0.2,0.4-0.4S270,283.7,269.8,283.7 z" class="st10"/><path d="M249.6,283.7h-1.1v-1.1c0-0.2-0.2-0.4-0.4-0.4s-0.4,0.2-0.4,0.4v1.1h-1.1c-0.2,0-0.4,0.2-0.4,0.4 s0.2,0.4,0.4,0.4h1.5h1.5c0.2,0,0.4-0.2,0.4-0.4S249.8,283.7,249.6,283.7z" class="st10"/><path d="M248.1,266.1c0.2,0,0.4-0.2,0.4-0.4l0,0v-3.4c0-0.2-0.2-0.4-0.4-0.4s-0.4,0.2-0.4,0.4v3.4l0,0 C247.7,265.9,247.9,266.1,248.1,266.1z" class="st10"/><path d="M249.6,257.1h-1.5h-1.5c-0.2,0-0.4,0.2-0.4,0.4s0.2,0.4,0.4,0.4h1.1v1.1c0,0.2,0.2,0.4,0.4,0.4 s0.4-0.2,0.4-0.4v-1.1h1.1c0.2,0,0.4-0.2,0.4-0.4S249.8,257.1,249.6,257.1z" class="st10"/><path d="M269.8,257.1h-3.4c-0.2,0-0.4,0.2-0.4,0.4s0.2,0.4,0.4,0.4h3.4c0.2,0,0.4-0.2,0.4-0.4S270,257.1,269.8,257.1 z" class="st10"/><path d="M263,257.1h-3.4c-0.2,0-0.4,0.2-0.4,0.4s0.2,0.4,0.4,0.4h3.4c0.2,0,0.4-0.2,0.4-0.4S263.2,257.1,263,257.1z" class="st10"/><path d="M256.3,257.1h-3.4c-0.2,0-0.4,0.2-0.4,0.4s0.2,0.4,0.4,0.4h3.4c0.2,0,0.4-0.2,0.4-0.4 S256.5,257.1,256.3,257.1z" class="st10"/><path d="M274.3,269.1v3.4l0,0c0,0.2,0.2,0.4,0.4,0.4c0.2,0,0.4-0.2,0.4-0.4l0,0v-3.4l0,0c0-0.2-0.2-0.4-0.4-0.4 C274.4,268.7,274.3,268.9,274.3,269.1L274.3,269.1z" class="st10"/><path d="M274.3,275.8v3.4c0,0.2,0.2,0.4,0.4,0.4c0.2,0,0.4-0.2,0.4-0.4v-3.4l0,0c0-0.2-0.2-0.4-0.4-0.4 C274.4,275.4,274.3,275.6,274.3,275.8L274.3,275.8z" class="st10"/><path d="M289.6,283.7h-3.4c-0.2,0-0.4,0.2-0.4,0.4s0.2,0.4,0.4,0.4h3.4c0.2,0,0.4-0.2,0.4-0.4 S289.8,283.7,289.6,283.7z" class="st10"/><path d="M282.9,283.7h-3.4c-0.2,0-0.4,0.2-0.4,0.4s0.2,0.4,0.4,0.4h3.4c0.2,0,0.4-0.2,0.4-0.4 S283.1,283.7,282.9,283.7z" class="st10"/><path d="M296.3,283.7H293c-0.2,0-0.4,0.2-0.4,0.4s0.2,0.4,0.4,0.4h3.4c0.2,0,0.4-0.2,0.4-0.4 S296.5,283.7,296.3,283.7z" class="st10"/><path d="M276.1,283.7H275v-1.1c0-0.2-0.2-0.4-0.4-0.4c-0.2,0-0.4,0.2-0.4,0.4v1.1h-1.1c-0.2,0-0.4,0.2-0.4,0.4 s0.2,0.4,0.4,0.4h1.5h1.5c0.2,0,0.4-0.2,0.4-0.4S276.3,283.7,276.1,283.7z" class="st10"/><path d="M274.6,266.1c0.2,0,0.4-0.2,0.4-0.4l0,0v-3.4c0-0.2-0.2-0.4-0.4-0.4c-0.2,0-0.4,0.2-0.4,0.4v3.4l0,0 C274.3,265.9,274.4,266.1,274.6,266.1z" class="st10"/><path d="M276.1,257.1h-1.5h-1.5c-0.2,0-0.4,0.2-0.4,0.4s0.2,0.4,0.4,0.4h1.1v1.1c0,0.2,0.2,0.4,0.4,0.4 c0.2,0,0.4-0.2,0.4-0.4v-1.1h1.1c0.2,0,0.4-0.2,0.4-0.4S276.3,257.1,276.1,257.1z" class="st10"/><path d="M279.5,257.8h3.4c0.2,0,0.4-0.2,0.4-0.4s-0.2-0.4-0.4-0.4h-3.4c-0.2,0-0.4,0.2-0.4,0.4 S279.3,257.8,279.5,257.8z" class="st10"/><path d="M293,257.8h3.4c0.2,0,0.4-0.2,0.4-0.4s-0.2-0.4-0.4-0.4H293c-0.2,0-0.4,0.2-0.4,0.4S292.8,257.8,293,257.8z" class="st10"/><path d="M286.2,257.8h3.4c0.2,0,0.4-0.2,0.4-0.4s-0.2-0.4-0.4-0.4h-3.4c-0.2,0-0.4,0.2-0.4,0.4 S286,257.8,286.2,257.8z" class="st10"/><path d="M300.8,269.1v3.4l0,0c0,0.2,0.2,0.4,0.4,0.4c0.2,0,0.4-0.2,0.4-0.4l0,0v-3.4l0,0c0-0.2-0.2-0.4-0.4-0.4 S300.8,268.9,300.8,269.1L300.8,269.1z" class="st10"/><path d="M300.8,275.8v3.4c0,0.2,0.2,0.4,0.4,0.4c0.2,0,0.4-0.2,0.4-0.4v-3.4l0,0c0-0.2-0.2-0.4-0.4-0.4 S300.8,275.6,300.8,275.8L300.8,275.8z" class="st10"/><path d="M309.4,283.7H306c-0.2,0-0.4,0.2-0.4,0.4s0.2,0.4,0.4,0.4h3.4c0.2,0,0.4-0.2,0.4-0.4 S309.6,283.7,309.4,283.7z" class="st10"/><path d="M316.2,283.7h-3.4c-0.2,0-0.4,0.2-0.4,0.4s0.2,0.4,0.4,0.4h3.4c0.2,0,0.4-0.2,0.4-0.4 S316.4,283.7,316.2,283.7z" class="st10"/><path d="M322.9,283.7h-3.4c-0.2,0-0.4,0.2-0.4,0.4s0.2,0.4,0.4,0.4h3.4c0.2,0,0.4-0.2,0.4-0.4 S323.1,283.7,322.9,283.7z" class="st10"/><path d="M302.7,283.7h-1.1v-1.1c0-0.2-0.2-0.4-0.4-0.4c-0.2,0-0.4,0.2-0.4,0.4v1.1h-1.1c-0.2,0-0.4,0.2-0.4,0.4 s0.2,0.4,0.4,0.4h1.5h1.5c0.2,0,0.4-0.2,0.4-0.4S302.9,283.7,302.7,283.7z" class="st10"/><path d="M301.2,266.1c0.2,0,0.4-0.2,0.4-0.4l0,0v-3.4c0-0.2-0.2-0.4-0.4-0.4c-0.2,0-0.4,0.2-0.4,0.4v3.4l0,0 C300.8,265.9,301,266.1,301.2,266.1z" class="st10"/><path d="M302.7,257.1h-1.5h-1.5c-0.2,0-0.4,0.2-0.4,0.4s0.2,0.4,0.4,0.4h1.1v1.1c0,0.2,0.2,0.4,0.4,0.4 c0.2,0,0.4-0.2,0.4-0.4v-1.1h1.1c0.2,0,0.4-0.2,0.4-0.4S302.9,257.1,302.7,257.1z" class="st10"/><path d="M309.4,257.1H306c-0.2,0-0.4,0.2-0.4,0.4s0.2,0.4,0.4,0.4h3.4c0.2,0,0.4-0.2,0.4-0.4 S309.6,257.1,309.4,257.1z" class="st10"/><path d="M316.2,257.1h-3.4c-0.2,0-0.4,0.2-0.4,0.4s0.2,0.4,0.4,0.4h3.4c0.2,0,0.4-0.2,0.4-0.4 S316.4,257.1,316.2,257.1z" class="st10"/><path d="M322.9,257.1h-3.4c-0.2,0-0.4,0.2-0.4,0.4s0.2,0.4,0.4,0.4h3.4c0.2,0,0.4-0.2,0.4-0.4 S323.1,257.1,322.9,257.1z" class="st10"/><path d="M327.4,269.1v3.4l0,0c0,0.2,0.2,0.4,0.4,0.4s0.4-0.2,0.4-0.4l0,0v-3.4l0,0c0-0.2-0.2-0.4-0.4-0.4 S327.4,268.9,327.4,269.1L327.4,269.1z" class="st10"/><path d="M327.4,275.8v3.4c0,0.2,0.2,0.4,0.4,0.4s0.4-0.2,0.4-0.4v-3.4l0,0c0-0.2-0.2-0.4-0.4-0.4 S327.4,275.6,327.4,275.8L327.4,275.8z" class="st10"/><path d="M342.7,283.7h-3.4c-0.2,0-0.4,0.2-0.4,0.4s0.2,0.4,0.4,0.4h3.4c0.2,0,0.4-0.2,0.4-0.4 S342.9,283.7,342.7,283.7z" class="st10"/><path d="M349.5,283.7h-3.4c-0.2,0-0.4,0.2-0.4,0.4s0.2,0.4,0.4,0.4h3.4c0.2,0,0.4-0.2,0.4-0.4 S349.7,283.7,349.5,283.7z" class="st10"/><path d="M336,283.7h-3.4c-0.2,0-0.4,0.2-0.4,0.4s0.2,0.4,0.4,0.4h3.4c0.2,0,0.4-0.2,0.4-0.4S336.2,283.7,336,283.7z" class="st10"/><path d="M329.3,283.7h-1.1v-1.1c0-0.2-0.2-0.4-0.4-0.4s-0.4,0.2-0.4,0.4v1.1h-1.1c-0.2,0-0.4,0.2-0.4,0.4 s0.2,0.4,0.4,0.4h1.5h1.5c0.2,0,0.4-0.2,0.4-0.4S329.5,283.7,329.3,283.7z" class="st10"/><path d="M327.8,266.1c0.2,0,0.4-0.2,0.4-0.4l0,0v-3.4c0-0.2-0.2-0.4-0.4-0.4s-0.4,0.2-0.4,0.4v3.4l0,0 C327.4,265.9,327.6,266.1,327.8,266.1z" class="st10"/><path d="M329.3,257.1h-1.5h-1.5c-0.2,0-0.4,0.2-0.4,0.4s0.2,0.4,0.4,0.4h1.1v1.1c0,0.2,0.2,0.4,0.4,0.4 s0.4-0.2,0.4-0.4v-1.1h1.1c0.2,0,0.4-0.2,0.4-0.4S329.5,257.1,329.3,257.1z" class="st10"/><path d="M349.5,257.1h-3.4c-0.2,0-0.4,0.2-0.4,0.4s0.2,0.4,0.4,0.4h3.4c0.2,0,0.4-0.2,0.4-0.4 S349.7,257.1,349.5,257.1z" class="st10"/><path d="M342.7,257.1h-3.4c-0.2,0-0.4,0.2-0.4,0.4s0.2,0.4,0.4,0.4h3.4c0.2,0,0.4-0.2,0.4-0.4 S342.9,257.1,342.7,257.1z" class="st10"/><path d="M336,257.1h-3.4c-0.2,0-0.4,0.2-0.4,0.4s0.2,0.4,0.4,0.4h3.4c0.2,0,0.4-0.2,0.4-0.4S336.2,257.1,336,257.1z" class="st10"/><path d="M354,269.1v3.4l0,0c0,0.2,0.2,0.4,0.4,0.4s0.4-0.2,0.4-0.4l0,0v-3.4l0,0c0-0.2-0.2-0.4-0.4-0.4 S354,268.9,354,269.1L354,269.1z" class="st10"/><path d="M354,275.8v3.4c0,0.2,0.2,0.4,0.4,0.4s0.4-0.2,0.4-0.4v-3.4l0,0c0-0.2-0.2-0.4-0.4-0.4S354,275.6,354,275.8 L354,275.8z" class="st10"/><path d="M376,283.7h-3.4c-0.2,0-0.4,0.2-0.4,0.4s0.2,0.4,0.4,0.4h3.4c0.2,0,0.4-0.2,0.4-0.4S376.3,283.7,376,283.7z" class="st10"/><path d="M369.3,283.7h-3.4c-0.2,0-0.4,0.2-0.4,0.4s0.2,0.4,0.4,0.4h3.4c0.2,0,0.4-0.2,0.4-0.4 S369.5,283.7,369.3,283.7z" class="st10"/><path d="M362.6,283.7h-3.4c-0.2,0-0.4,0.2-0.4,0.4s0.2,0.4,0.4,0.4h3.4c0.2,0,0.4-0.2,0.4-0.4 S362.8,283.7,362.6,283.7z" class="st10"/><path d="M355.8,283.7h-1.1v-1.1c0-0.2-0.2-0.4-0.4-0.4s-0.4,0.2-0.4,0.4v1.1h-1.1c-0.2,0-0.4,0.2-0.4,0.4 s0.2,0.4,0.4,0.4h1.5h1.5c0.2,0,0.4-0.2,0.4-0.4S356,283.7,355.8,283.7z" class="st10"/><path d="M354.3,266.1c0.2,0,0.4-0.2,0.4-0.4l0,0v-3.4c0-0.2-0.2-0.4-0.4-0.4s-0.4,0.2-0.4,0.4v3.4l0,0 C354,265.9,354.1,266.1,354.3,266.1z" class="st10"/><path d="M355.8,257.1h-1.5h-1.5c-0.2,0-0.4,0.2-0.4,0.4s0.2,0.4,0.4,0.4h1.1v1.1c0,0.2,0.2,0.4,0.4,0.4 s0.4-0.2,0.4-0.4v-1.1h1.1c0.2,0,0.4-0.2,0.4-0.4S356,257.1,355.8,257.1z" class="st10"/><path d="M365.9,257.8h3.4c0.2,0,0.4-0.2,0.4-0.4s-0.2-0.4-0.4-0.4h-3.4c-0.2,0-0.4,0.2-0.4,0.4 S365.7,257.8,365.9,257.8z" class="st10"/><path d="M372.7,257.8h3.4c0.2,0,0.4-0.2,0.4-0.4s-0.2-0.4-0.4-0.4h-3.4c-0.2,0-0.4,0.2-0.4,0.4 S372.5,257.8,372.7,257.8z" class="st10"/><path d="M359.2,257.8h3.4c0.2,0,0.4-0.2,0.4-0.4s-0.2-0.4-0.4-0.4h-3.4c-0.2,0-0.4,0.2-0.4,0.4 S359,257.8,359.2,257.8z" class="st10"/><path d="M380.5,269.1v3.4l0,0c0,0.2,0.2,0.4,0.4,0.4s0.4-0.2,0.4-0.4l0,0v-3.4l0,0c0-0.2-0.2-0.4-0.4-0.4 S380.5,268.9,380.5,269.1L380.5,269.1z" class="st10"/><path d="M380.5,275.8v3.4c0,0.2,0.2,0.4,0.4,0.4s0.4-0.2,0.4-0.4v-3.4l0,0c0-0.2-0.2-0.4-0.4-0.4 S380.5,275.6,380.5,275.8L380.5,275.8z" class="st10"/><path d="M407.5,282.2c-0.2,0-0.4,0.2-0.4,0.4v1.1H406c-0.2,0-0.4,0.2-0.4,0.4s0.2,0.4,0.4,0.4h1.5 c0.2,0,0.4-0.2,0.4-0.4v-1.5C407.9,282.3,407.7,282.2,407.5,282.2z" class="st10"/><path d="M389.1,283.7h-3.4c-0.2,0-0.4,0.2-0.4,0.4s0.2,0.4,0.4,0.4h3.4c0.2,0,0.4-0.2,0.4-0.4 S389.4,283.7,389.1,283.7z" class="st10"/><path d="M395.9,283.7h-3.4c-0.2,0-0.4,0.2-0.4,0.4s0.2,0.4,0.4,0.4h3.4c0.2,0,0.4-0.2,0.4-0.4 S396.1,283.7,395.9,283.7z" class="st10"/><path d="M402.6,283.7h-3.4c-0.2,0-0.4,0.2-0.4,0.4s0.2,0.4,0.4,0.4h3.4c0.2,0,0.4-0.2,0.4-0.4 S402.8,283.7,402.6,283.7z" class="st10"/><path d="M382.4,283.7h-1.1v-1.1c0-0.2-0.2-0.4-0.4-0.4s-0.4,0.2-0.4,0.4v1.1h-1.1c-0.2,0-0.4,0.2-0.4,0.4 s0.2,0.4,0.4,0.4h1.5h1.5c0.2,0,0.4-0.2,0.4-0.4S382.6,283.7,382.4,283.7z" class="st10"/><path d="M380.9,266.1c0.2,0,0.4-0.2,0.4-0.4l0,0v-3.4c0-0.2-0.2-0.4-0.4-0.4s-0.4,0.2-0.4,0.4v3.4l0,0 C380.5,265.9,380.7,266.1,380.9,266.1z" class="st10"/><path d="M382.4,257.1h-1.5h-1.5c-0.2,0-0.4,0.2-0.4,0.4s0.2,0.4,0.4,0.4h1.1v1.1c0,0.2,0.2,0.4,0.4,0.4 s0.4-0.2,0.4-0.4v-1.1h1.1c0.2,0,0.4-0.2,0.4-0.4S382.6,257.1,382.4,257.1z" class="st10"/><path d="M389.1,257.1h-3.4c-0.2,0-0.4,0.2-0.4,0.4s0.2,0.4,0.4,0.4h3.4c0.2,0,0.4-0.2,0.4-0.4 S389.4,257.1,389.1,257.1z" class="st10"/><path d="M402.6,257.1h-3.4c-0.2,0-0.4,0.2-0.4,0.4s0.2,0.4,0.4,0.4h3.4c0.2,0,0.4-0.2,0.4-0.4 S402.8,257.1,402.6,257.1z" class="st10"/><path d="M395.9,257.1h-3.4c-0.2,0-0.4,0.2-0.4,0.4s0.2,0.4,0.4,0.4h3.4c0.2,0,0.4-0.2,0.4-0.4 S396.1,257.1,395.9,257.1z" class="st10"/><path d="M407.5,257.1H406c-0.2,0-0.4,0.2-0.4,0.4s0.2,0.4,0.4,0.4h1.1v1.1c0,0.2,0.2,0.4,0.4,0.4s0.4-0.2,0.4-0.4 v-1.5C407.9,257.3,407.7,257.1,407.5,257.1z" class="st10"/><path d="M407.5,275.4c-0.2,0-0.4,0.2-0.4,0.4v3.4c0,0.2,0.2,0.4,0.4,0.4s0.4-0.2,0.4-0.4v-3.4 C407.9,275.6,407.7,275.4,407.5,275.4z" class="st10"/><path d="M407.5,261.9c-0.2,0-0.4,0.2-0.4,0.4v3.4c0,0.2,0.2,0.4,0.4,0.4s0.4-0.2,0.4-0.4v-3.4 C407.9,262.1,407.7,261.9,407.5,261.9z" class="st10"/><path d="M407.5,268.7c-0.2,0-0.4,0.2-0.4,0.4v3.4c0,0.2,0.2,0.4,0.4,0.4s0.4-0.2,0.4-0.4v-3.4 C407.9,268.9,407.7,268.7,407.5,268.7z" class="st10"/></g><g id="Picture_5"><rect width="26.9" height="27.3" x="210.9" y="267.1" class="st7"/><rect width="26.9" height="27.3" x="210.9" y="267.1" class="st11"/><g id="Eclipse_copy_3"><ellipse id="Sun_3_" cx="224.5" cy="280.7" class="st6" rx="9.8" ry="9.6"/><ellipse id="Moon_3_" cx="224.5" cy="280.7" class="st1" rx="9.2" ry="9.1"/><g id="Star_3_"><path d="M231.1,275.5c0,0,0.4-1.5,1.5-1.5c-0.7,0-2.2,0-3,0C230.8,274.1,231.1,275.5,231.1,275.5z" class="st8"/><path d="M231.1,272.6c0,0-0.3,1.4-1.5,1.4c0.7,0,2.2,0,2.9,0C231.5,274.1,231.1,272.6,231.1,272.6z" class="st8"/></g></g></g><g id="Picture_4"><rect width="26.6" height="27.3" x="301.2" y="257.1" class="st7"/><rect width="26.6" height="27.3" x="301.2" y="257.1" class="st11"/><g id="Eclipse_copy_3_1_"><ellipse id="Sun_4_" cx="314.7" cy="270.7" class="st6" rx="9.8" ry="9.6"/><ellipse id="Moon_4_" cx="314.7" cy="270.7" class="st1" rx="9.2" ry="9.1"/><g id="Star_4_"><path d="M321.3,265.5c0,0,0.4-1.5,1.5-1.5c-0.7,0-2.2,0-3,0C321,264.1,321.3,265.5,321.3,265.5z" class="st8"/><path d="M321.3,262.6c0,0-0.3,1.4-1.5,1.4c0.7,0,2.2,0,2.9,0C321.7,264.1,321.3,262.6,321.3,262.6z" class="st8"/></g></g></g><g id="Picture_3"><rect width="26.6" height="27.3" x="327.8" y="257.1" class="st7"/><rect width="26.6" height="27.3" x="327.8" y="257.1" class="st11"/><g id="Eclipse_copy_3_2_"><ellipse id="Sun_2_" cx="341.1" cy="270.7" class="st6" rx="9.8" ry="9.6"/><ellipse id="Moon_2_" cx="341.1" cy="270.7" class="st1" rx="9.2" ry="9.1"/><g id="Star_2_"><path d="M347.7,265.5c0,0,0.4-1.5,1.5-1.5c-0.7,0-2.2,0-3,0C347.4,264.1,347.7,265.5,347.7,265.5z" class="st8"/><path d="M347.7,262.6c0,0-0.3,1.4-1.5,1.4c0.7,0,2.2,0,2.9,0C348.1,264.1,347.7,262.6,347.7,262.6z" class="st8"/></g></g></g><g id="Picture_2"><rect width="26.6" height="27.3" x="354.3" y="257.1" class="st7"/><rect width="26.6" height="27.3" x="354.3" y="257.1" class="st11"/><g id="Eclipse_copy_3_3_"><ellipse id="Sun_1_" cx="367.6" cy="270.7" class="st6" rx="9.8" ry="9.6"/><ellipse id="Moon_1_" cx="367.6" cy="270.7" class="st1" rx="9.2" ry="9.1"/><g id="Star_1_"><path d="M374.2,265.5c0,0,0.4-1.5,1.5-1.5c-0.7,0-2.2,0-3,0C373.9,264.1,374.2,265.5,374.2,265.5z" class="st8"/><path d="M374.2,262.6c0,0-0.3,1.4-1.5,1.4c0.7,0,2.2,0,2.9,0C374.6,264.1,374.2,262.6,374.2,262.6z" class="st8"/></g></g></g><g id="Picture_1"><rect width="26.6" height="27.3" x="380.9" y="257.1" class="st7"/><rect width="26.6" height="27.3" x="380.9" y="257.1" class="st11"/><g id="Eclipse_copy_3_4_"><ellipse id="Sun_5_" cx="394.2" cy="270.7" class="st6" rx="9.8" ry="9.6"/><ellipse id="Moon_5_" cx="394.2" cy="270.7" class="st1" rx="9.2" ry="9.1"/><g id="Star_5_"><path d="M400.8,265.5c0,0,0.4-1.5,1.5-1.5c-0.7,0-2.2,0-3,0C400.5,264.1,400.8,265.5,400.8,265.5z" class="st8"/><path d="M400.8,262.6c0,0-0.3,1.4-1.5,1.4c0.7,0,2.2,0,2.9,0C401.2,264.1,400.8,262.6,400.8,262.6z" class="st8"/></g></g></g><g id="Dots"><g><g><line x1="172.3" x2="172.3" y1="312.8" y2="312.8" class="st12"/><path d="M177.6,304.2c7.6-6.7,16-15.2,27.5-12.9" class="st13"/><line x1="206.9" x2="206.9" y1="292.1" y2="292.1" class="st12"/></g></g></g><g id="Man"><path d="M164,326.9l-3.1-7.6c-0.2-0.5-0.7-0.7-1.2-0.5l-3.8,1.6c-0.5,0.2-0.9,0.8-1,1.2l-0.9,4.7 c-0.1,0.5,0,1.3,0.1,1.8l2.4,8.1c0.1,0.5,0.5,0.9,1.1,1.3l2.5,1.2c0.4,0.2,1.2,0.2,1.6-0.1l0.8-0.5c0.4-0.3,0.7-0.9,0.6-1.4 l-1-6.4c-0.1-0.5,0.2-1.1,0.6-1.4l0.9-0.6C164,327.9,164.2,327.3,164,326.9z" class="st14"/><path d="M157.8,311.8h-0.1h-0.1c-3.6,0-8.3,8.7-8.3,8.7l0,0c-0.4,0.6-0.7,1.3-0.7,2.1c0,1.2,0.6,2.2,1.4,2.8 c0,0.2-0.1,0.4-0.1,0.6c0,1.2,0.5,2.2,1.3,3l0,0c0,0,3.3,4,4.7,4.8l0.5-3.9l0.1-0.1c-1.2-0.1-2.1-1.1-2.1-2.3 c0-1.3,1.1-2.4,2.4-2.4c1.1,0,2,0.7,2.3,1.7c0.1-0.3,0.2-0.6,0.2-0.8c0-0.8-1.3-2.9-1.7-3.6l1.8-1.1c1.8-0.4,4.1-3.4,4.1-5.3 C163.4,313.8,161,311.4,157.8,311.8z" class="st15"/><path d="M173.6,333.7c0,0-2.7-1.7-2.4-4.2c0,0,0.1-0.5,0.4-0.4s0.4,0.7,0.4,1s0.4-0.5,0.1-2.2 c-0.2-1.7,1.7-2,2.2-1.2s1.8,3,1.2,6.5L173.6,333.7z" class="st16"/><g id="Layer_23"><polyline points="182.2 315.6 185.3 313.7 187.8 314 189.4 315.8 189.7 318.7 188.8 320.5 185.5 322.8 184.6 319.8 182.2 315.6" class="st17"/><path d="M183.2,315l-3.1,1.8c0,0-1.1,1-1,0.9s2.3,7.6,2.3,7.6l4-2.6l0.3-0.2c0,0,2.5-1.9,0.7-5.1 C185.4,315.4,184,315,183.2,315z" class="st18"/><path d="M186.2,313.2l-1.2,0.7c0.3-0.1,2.2,0,3.4,2.3s0.4,4.1-0.3,4.7l1-0.7c0,0,2.1-1.9,0.6-4.8 C188.6,313,186.2,313.2,186.2,313.2z" class="st19"/><polygon points="166.5 320.1 169.6 318 180.7 314.6 185 325.8 180.8 328.4 170.5 330.3" class="st17"/><polygon points="168.6 323 170.7 329 176.8 327.6 174.6 321.4" class="st19"/></g><path d="M181.9,328.4c0.1-1-0.7-1.8-1.6-1.9c-1-0.1-1.8,0.7-1.9,1.6c0,0.2,0,0.5,0.1,0.7c0,0.3,0.1,0.7,0.2,1.1 c0.2,0.9-0.5,0.7-0.6-0.4s-1.2-0.5-0.9,0.2s0.8,2.8,1.2,3.1c0.4,0.4,0.2,1.3,0.2,1.3l2.3,0.2C180.8,334.3,182.2,330.4,181.9,328.4 z" class="st14"/><path d="M164.9,429.3c0,0-1,2.5-1,4.3h14c0,0-0.3-3.1-3-3.1s-4.8,0.2-5.2-0.9L164.9,429.3z" class="st20"/><path d="M145,425.6c0,0-2.7,1.9-2.7,3.7l5,4.3h8.3c0,0-0.3-3.1-3-3.1s-4.3-0.3-4.7-1.4L145,425.6z" class="st20"/><path d="M168.5,387.2c-1.2-2.4-2.5-7.9-2.3-8.9l-5.5-1.4l0,0c-0.4-0.1-0.8-0.1-1.2-0.1c-3.3,0-5.9,2.6-5.9,5.9 c0,0,0,0.2,0,0.6l0,0c0.1,1.9,0.7,8.6,3,19.1c2.8,12.6-12,23.1-12,23.1l3.4,4.1c0,0,11.5-9.3,13.2-18.4s0.8-16.9,0.8-16.9 s7.3,10.5,6.4,18.4c-0.9,7.9-3,14.4-4,16.9h5.3c0,0,4.2-10.1,4.5-17.7C174.5,404.3,169.7,389.6,168.5,387.2z" class="st21"/><path d="M162,394.4c-0.9-1.6-1.8-3.1-2.6-4.2c-1.3-1.9-4.1-3-5.6-4.5c0.3,3.2,1.1,8.9,2.8,16.8 c2.8,12.6-12,23.1-12,23.1l3.4,4.1c0,0,11.5-9.3,13.2-18.4C162.8,402.5,162,394.9,162,394.4z" class="st22"/><path d="M158.7,344.7c0,0,7.5,4.2,10.2,0s3.9-11.5,3.9-11.5h3c0,0-1.2,10.9-4.2,14.8s-8.9,2.1-12.9,0.9 C154.7,347.8,156,344.8,158.7,344.7z" class="st23"/><path d="M163.3,346L163.3,346c-0.5-2.6-2.9-4.6-5.7-4.6c-2.6,0-4.9,1.8-5.6,4.2l0,0c0,0-1.2,2.6,0,8.4 s3.4,17.5,3.4,24.4h10.7C166.1,378.3,169.1,363.4,163.3,346z" class="st24"/><path d="M165.7,355.5c-2-1.3-5-3.5-5.4-4.5c0,0,3.4,8.5,6.3,11.4C166.4,360.2,166.1,357.9,165.7,355.5z" class="st23"/><path d="M162.6,344.3c0,0,5.6,10.7,10.1,8.4c4.5-2.3,5.8-18.8,5.8-18.8h2.6c0,0,0.7,13-4,20.2 c-4.7,7.1-12.7,1.1-15-0.6C159.9,351.8,157.7,345.1,162.6,344.3z" class="st24"/></g><polygon points="141.1 302.1 145 300.9 146.1 312.5 142.2 314.2" class="st25"/><polygon points="141.6 303 144.4 302 145.4 311.6 142.7 312.6" class="st18"/><g id="Woman"><g id="Layer_24"><path d="M119.8,315.7c0.1-1,0.3-2,0.3-3.1c0.7-10.3-12.4,0.4-12.4,0.4l1.7,9.9l5.9,3.7c0,0,2.5-2.3,3.9-8.3 c0.1,0,0.2,0,0.2,0c0.7,0,1.3-0.6,1.3-1.3C120.9,316.3,120.4,315.8,119.8,315.7z" class="st26"/><polygon points="108.6 391.9 102.9 416.6 105.7 416.6 114.5 391 114.5 367.5 107.1 368.1" class="st26"/><path d="M115.5,393.2l3.3,23.4h2.8c0,0-2.2-43.8-2.2-44.3s-6.7,0-6.7,0L115.5,393.2z" class="st26"/><path d="M142.3,319.2c0,0,0.2-2.6-0.2-4.1c-0.4-1.4,0.2-2,0.6-2.5c0.4-0.5,0.8-0.2,0.6,0.5s0.1,0.8,0.4,0.2 c0.3-0.6,0.5-2.2,1.5-2.5s2.4,0.2,1.2,4.2s-2.4,4.3-2.7,4.8C143.4,320.2,142.3,319.2,142.3,319.2z" class="st26"/></g><path d="M119.7,304.9c-1.1,0-2.1,0.5-2.8,1.3c-1.1-0.3-2.2-0.5-3.3-0.5c-6.3,0-11.4,5.1-11.4,11.4 c0,2.6,0.9,5,2.4,6.9l0,0c0,0-9.6,17.5,5.5,26.3c0,0,1.3-5.6-1.8-12.1c-3.2-6.5,3.7-6.4,5.3-6.2c0.4,0,0.2-0.4-0.2-1.2 c4.6-2.2,1.3-5.8-0.5-8.1c-1.8-2.3-1.4-6-1.4-6c2.5,0,4.7-1.8,5.2-4.2l0,0c0,0,0.2-0.7,0.6-1.2c0.7,0.6,1.5,1,2.5,1 c2.1,0,3.7-1.7,3.7-3.7C123.5,306.6,121.8,304.9,119.7,304.9z" class="st20"/><g><path d="M102.8,416.6c0,0-0.5,0.8-0.4,2.2h8.6c0,0-3-2.2-5.1-2.2H102.8z" class="st17"/><path d="M121.8,416.6h-3.1c0,0-0.5,0.8-0.4,2.2h8.6C126.9,418.8,123.8,416.6,121.8,416.6z" class="st17"/></g><path d="M108.4,362.8c0,0-4.3,2.3-2.5,11.3c1.7,8.9-1,19.2-1,19.2H125c0,0-2.6-5-3.2-10.2s-2.4-20.2-2.4-20.2 L108.4,362.8" class="st27"/><g id="Layer_27"><path d="M142.2,318.4c0,0-10.7,12.3-16,14.8c-4.2,2-9.7-0.8-11.8-2.1c-0.3-0.2-0.6-0.4-0.9-0.5l-0.1-0.1l0,0 c-0.6-0.3-1.3-0.5-2.1-0.5c-2.7,0-4.9,2.2-4.9,4.9s2.2,4.9,4.9,4.9c1.7,0,3.2-0.9,4.1-2.2c9.8,2.6,13.5-0.4,17.7-3.6 c4.4-3.4,11.4-14.6,11.4-14.6L142.2,318.4z" class="st28"/><path d="M107.1,337.1c0,0,5.3,13.8,1.1,25.6h12.3c0,0-0.9-11.5,0.6-15.7s2-10.2-4.1-12.2S107.1,337.1,107.1,337.1z" class="st28"/></g></g></g></svg>