<svg xmlns="http://www.w3.org/2000/svg" xmlns:xlink="http://www.w3.org/1999/xlink" id="_x32__1_" width="789.7" height="647.3" x="0" style="enable-background:new -204 -8.3 789.7 647.3" y="0" version="1.1" viewBox="-204 -8.3 789.7 647.3" xml:space="preserve"><style type="text/css">.st0{fill:#7986cb}.st1{fill:#311b8f}.st2{fill:#42259e}.st3{fill:#5e35b1}.st4{fill:#b39ddb}.st5{fill:#0164a9}.st6{fill:#0288d1}.st7{fill:#00bfa5}.st8{fill:#004d40}.st10,.st9{opacity:.5;enable-background:new}.st9{fill:#303f9f}.st10{fill:#2657d1}.st11{fill:#1a237e}.st12{fill:#006064}.st13{fill:#757575}.st14{fill:#bdbdbd}.st15{fill:#616161}.st16{fill:#ffa000}.st17{fill:#ffb300}.st18{fill:#ffca28}.st19{fill:#ef6c00}.st20{fill:#ff8f00}.st21{fill:#ff6f00}.st22{fill:#e65100}.st23{fill:none;stroke:#b39ddb;stroke-width:2;stroke-linecap:round;stroke-miterlimit:100;stroke-dasharray:0,5}.st24{enable-background:new}</style><g id="Black"><rect width="791.1" height="647.3" x="-203" y="-7.3"/></g><g id="Diagram"><g id="Stars"><rect width="4.4" height="4.4" x="355.4" y="70.9" class="st0" transform="matrix(0.7073 0.7069 -0.7069 0.7073 156.3432 -231.3778)"/><rect width="4.4" height="4.4" x="116.4" y="64.6" class="st0" transform="matrix(0.7073 0.7069 -0.7069 0.7073 81.9201 -64.3204)"/><rect width="4.4" height="4.4" x="224.5" y="117.3" class="st0" transform="matrix(0.7073 0.7069 -0.7069 0.7073 150.7981 -125.2636)"/><rect width="4.4" height="4.4" x="47.6" y="509" class="st0" transform="matrix(0.7073 0.7069 -0.7069 0.7073 375.9234 114.4396)"/><rect width="4.4" height="4.4" x="165.8" y="488.4" class="st0" transform="matrix(0.7073 0.7069 -0.7069 0.7073 395.9913 24.8095)"/><rect width="4.4" height="4.4" x="379.4" y="561.8" class="st0" transform="matrix(0.7073 0.7069 -0.7069 0.7073 510.3755 -104.6803)"/><rect width="3.4" height="3.4" x="111.3" y="162" class="st0" transform="matrix(0.7074 0.7068 -0.7068 0.7074 148.8008 -31.9735)"/><rect width="3.4" height="3.4" x="297.7" y="157.2" class="st0" transform="matrix(0.7074 0.7068 -0.7068 0.7074 199.9012 -165.1448)"/><rect width="3.4" height="3.4" x="351.3" y="503.5" class="st0" transform="matrix(0.7074 0.7069 -0.7069 0.7074 460.4005 -101.7124)"/><rect width="3.4" height="3.4" x="259.2" y="487.4" class="st0" transform="matrix(0.7074 0.7069 -0.7069 0.7074 422.0939 -41.3149)"/><rect width="3.4" height="3.4" x="92.8" y="544.6" class="st0" transform="matrix(0.7074 0.7069 -0.7069 0.7074 413.8246 93.0533)"/><rect width="3.4" height="3.4" x="409.2" y="157.2" class="st0" transform="matrix(0.7074 0.7068 -0.7068 0.7074 232.5359 -243.9568)"/><rect width="3.4" height="3.4" x="455.4" y="542.3" class="st0" transform="matrix(0.7074 0.7069 -0.7069 0.7074 518.2798 -163.9051)"/><rect width="3.4" height="3.4" x="279" y="585" class="st0" transform="matrix(0.7073 0.7069 -0.7069 0.7073 496.8571 -26.6855)"/><polygon points="255 42.1 250.3 46.7 255 51.4 259.6 46.7" class="st0"/><polygon points="19.7 140 24.3 144.7 29 140 24.3 135.4" class="st0"/><polygon points="508.1 451.8 503.4 456.5 508.1 461.1 512.7 456.5" class="st0"/><polygon points="512.2 167.4 507.6 162.7 503 167.4 507.6 172" class="st0"/></g><g id="Sun_Direction"><polygon points="-39 435.1 394.7 393.6 394.7 254.6 -39 213.2" class="st1"/><polygon points="-38.1 213.1 265.9 303.3 265.9 344.9 -39.8 435" class="st2"/><polygon points="257.2 305 -38.1 435.1 -38.1 213.1 257.2 343.2" class="st3"/></g><g id="Moon_Orbit"><path d="M417.2,197.9c0.1-0.3,0.2-0.6,0.5-0.8s0.6-0.2,1-0.2c0.4,0.1,0.7,0.2,0.8,0.5c0.2,0.3,0.2,0.6,0.2,0.9 c-0.1,0.3-0.2,0.6-0.5,0.7c-0.2,0.2-0.6,0.2-1,0.2c-0.4-0.1-0.7-0.2-0.8-0.5C417.3,198.4,417.1,198.2,417.2,197.9z" class="st4"/><path d="M438.2,203.5c0.1-0.3,0.3-0.6,0.6-0.7s0.6-0.1,1,0s0.6,0.4,0.7,0.6c0.1,0.3,0.1,0.6,0,0.9s-0.3,0.5-0.6,0.7 c-0.3,0.1-0.6,0.1-1,0s-0.6-0.3-0.7-0.6C438.1,204.1,438.1,203.8,438.2,203.5z" class="st4"/><path d="M458.1,212.5c0.2-0.3,0.4-0.5,0.7-0.6s0.6,0,1,0.2s0.6,0.5,0.6,0.8c0.1,0.3,0,0.6-0.2,0.9s-0.4,0.5-0.7,0.6 s-0.6,0-1-0.2s-0.6-0.4-0.6-0.7C457.9,213.1,457.9,212.8,458.1,212.5z" class="st4"/><path d="M476.1,224.7c0.2-0.3,0.5-0.4,0.8-0.5s0.6,0.1,0.9,0.3c0.3,0.2,0.5,0.5,0.5,0.8s-0.1,0.6-0.3,0.9 s-0.5,0.4-0.8,0.4s-0.6-0.1-0.9-0.3c-0.3-0.3-0.5-0.5-0.5-0.8C475.8,225.2,475.9,224.9,476.1,224.7z" class="st4"/><path d="M491.9,239.7c0.3-0.2,0.5-0.3,0.8-0.3s0.6,0.2,0.9,0.5c0.3,0.3,0.4,0.6,0.3,0.9c0,0.3-0.2,0.6-0.4,0.8 s-0.5,0.3-0.8,0.3s-0.6-0.2-0.9-0.5c-0.3-0.3-0.4-0.6-0.3-0.9C491.5,240.2,491.6,239.9,491.9,239.7z" class="st4"/><path d="M504.8,257.2c0.3-0.2,0.6-0.2,0.9-0.2c0.3,0.1,0.6,0.3,0.8,0.6c0.2,0.3,0.3,0.7,0.2,1s-0.3,0.5-0.6,0.7 s-0.6,0.2-0.9,0.2c-0.3-0.1-0.5-0.3-0.8-0.6c-0.2-0.3-0.3-0.7-0.2-0.9C504.3,257.8,504.6,257.4,504.8,257.2z" class="st4"/><path d="M514.6,276.6c0.3-0.1,0.6-0.1,0.9,0c0.3,0.1,0.5,0.3,0.6,0.7c0.1,0.4,0.2,0.7,0,1c-0.1,0.3-0.4,0.5-0.7,0.6 c-0.3,0.1-0.6,0.1-0.9,0c-0.3-0.1-0.5-0.4-0.6-0.7c-0.1-0.4-0.2-0.7,0-1C514.1,277,514.3,276.8,514.6,276.6z" class="st4"/><path d="M520.9,297.5c0.3-0.1,0.6,0,0.9,0.1c0.3,0.2,0.4,0.4,0.5,0.8c0.1,0.4,0,0.7-0.2,1c-0.2,0.2-0.4,0.4-0.8,0.5 c-0.3,0.1-0.6,0-0.9-0.1c-0.3-0.1-0.4-0.4-0.5-0.8c-0.1-0.4,0-0.7,0.1-1C520.4,297.7,520.6,297.6,520.9,297.5z" class="st4"/><path d="M523.5,319.1c0.3,0,0.6,0.1,0.9,0.3c0.3,0.2,0.4,0.5,0.4,0.9c0,0.4-0.1,0.7-0.3,0.9c-0.2,0.2-0.5,0.3-0.8,0.3 s-0.6-0.1-0.8-0.3c-0.2-0.2-0.3-0.5-0.3-0.9c0-0.4,0.1-0.7,0.3-0.9C522.9,319.3,523.2,319.1,523.5,319.1z" class="st4"/><path d="M522.3,340.9c0.3,0.1,0.6,0.2,0.8,0.4c0.2,0.2,0.3,0.6,0.2,1c-0.1,0.4-0.2,0.7-0.5,0.9s-0.6,0.2-0.9,0.2 c-0.3,0-0.6-0.2-0.8-0.4s-0.2-0.6-0.2-1c0.1-0.4,0.2-0.7,0.5-0.8S522,340.9,522.3,340.9z" class="st4"/><path d="M517.4,362.1c0.3,0.1,0.6,0.3,0.7,0.6c0.2,0.3,0.2,0.6,0,1c-0.1,0.4-0.3,0.6-0.6,0.8c-0.3,0.1-0.6,0.1-0.9,0 c-0.3-0.1-0.5-0.3-0.7-0.6c-0.2-0.3-0.1-0.6,0-1c0.1-0.4,0.3-0.6,0.6-0.8C516.8,362,517.1,362,517.4,362.1z" class="st4"/><path d="M508.9,382.2c0.3,0.2,0.5,0.4,0.6,0.7s0.1,0.6-0.1,1c-0.2,0.4-0.4,0.6-0.7,0.6c-0.3,0.1-0.6,0-0.9-0.1 c-0.3-0.2-0.5-0.4-0.6-0.7s0-0.6,0.2-1s0.4-0.6,0.7-0.6C508.3,382,508.6,382,508.9,382.2z" class="st4"/><path d="M497.1,400.4c0.3,0.2,0.4,0.5,0.5,0.8s0,0.6-0.3,0.9c-0.3,0.3-0.5,0.5-0.8,0.5s-0.6-0.1-0.9-0.3 c-0.3-0.2-0.4-0.5-0.4-0.8s0.1-0.6,0.3-0.9c0.3-0.3,0.5-0.5,0.8-0.5S496.8,400.2,497.1,400.4z" class="st4"/><path d="M482.3,416.5c0.2,0.3,0.3,0.5,0.3,0.8s-0.1,0.6-0.4,0.9c-0.3,0.3-0.6,0.4-0.9,0.4c-0.3,0-0.6-0.2-0.8-0.4 s-0.3-0.5-0.3-0.8s0.2-0.6,0.5-0.9s0.6-0.4,0.9-0.4C481.8,416.1,482.1,416.2,482.3,416.5z" class="st4"/><path d="M465.1,429.8c0.2,0.3,0.2,0.6,0.2,0.9s-0.2,0.6-0.6,0.8c-0.3,0.2-0.7,0.3-1,0.2s-0.5-0.3-0.7-0.6 s-0.2-0.6-0.2-0.9c0.1-0.3,0.3-0.6,0.6-0.8s0.7-0.3,0.9-0.2C464.7,429.3,464.9,429.5,465.1,429.8z" class="st4"/><path d="M445.8,440c0.1,0.3,0.1,0.6,0,0.9c-0.1,0.3-0.3,0.5-0.7,0.7s-0.7,0.2-1,0c-0.3-0.1-0.5-0.4-0.6-0.7 s-0.1-0.6,0-0.9s0.3-0.5,0.7-0.7s0.7-0.2,1,0S445.7,439.7,445.8,440z" class="st4"/><path d="M425.2,446.9c0.1,0.3,0,0.6-0.1,0.9c-0.1,0.3-0.4,0.4-0.8,0.5c-0.4,0.1-0.7,0-1-0.1c-0.3-0.2-0.4-0.4-0.5-0.8 c-0.1-0.3,0-0.6,0.1-0.9c0.2-0.3,0.4-0.4,0.8-0.5c0.4-0.1,0.7-0.1,1,0.1S425.1,446.6,425.2,446.9z" class="st4"/><path d="M403.7,450.2c0,0.3-0.1,0.6-0.3,0.9c-0.2,0.2-0.5,0.4-0.9,0.4s-0.7-0.1-0.9-0.3s-0.3-0.5-0.4-0.8 c0-0.3,0.1-0.6,0.3-0.8s0.5-0.4,0.9-0.4s0.7,0.1,0.9,0.3C403.5,449.7,403.7,449.9,403.7,450.2z" class="st4"/><path d="M381.9,450c0,0.3-0.2,0.6-0.4,0.8s-0.5,0.3-0.9,0.2c-0.4,0-0.7-0.2-0.9-0.4s-0.3-0.5-0.2-0.9 c0-0.3,0.2-0.6,0.4-0.8s0.5-0.3,0.9-0.2s0.7,0.2,0.9,0.4C381.8,449.4,381.9,449.7,381.9,450z" class="st4"/><path d="M360.4,446.2c-0.1,0.3-0.3,0.6-0.5,0.7c-0.3,0.2-0.6,0.2-1,0.1c-0.4-0.1-0.7-0.3-0.8-0.6 c-0.1-0.3-0.2-0.6-0.1-0.9c0.1-0.3,0.3-0.6,0.5-0.7c0.2-0.1,0.6-0.2,1-0.1s0.7,0.3,0.8,0.6C360.5,445.6,360.5,445.9,360.4,446.2z" class="st4"/><path d="M339.9,438.9c-0.1,0.3-0.4,0.5-0.6,0.6c-0.3,0.1-0.6,0.1-1-0.1s-0.6-0.4-0.7-0.7s-0.1-0.6,0.1-0.9 c0.1-0.3,0.3-0.5,0.6-0.6s0.6-0.1,1,0.1c0.4,0.2,0.6,0.4,0.7,0.7C340.1,438.3,340.1,438.6,339.9,438.9z" class="st4"/><path d="M320.9,428.3c-0.2,0.3-0.4,0.5-0.7,0.5c-0.3,0.1-0.6,0-0.9-0.2s-0.5-0.5-0.6-0.8c0-0.3,0-0.6,0.2-0.9 s0.4-0.4,0.7-0.5s0.6,0,0.9,0.3c0.3,0.2,0.5,0.5,0.6,0.8C321.2,427.7,321.1,428,320.9,428.3z" class="st4"/><path d="M304,414.6c-0.2,0.2-0.5,0.4-0.8,0.4s-0.6-0.1-0.9-0.4c-0.3-0.3-0.4-0.6-0.4-0.9s0.1-0.6,0.4-0.8 c0.2-0.2,0.5-0.4,0.8-0.4s0.6,0.1,0.9,0.4s0.4,0.6,0.4,0.9C304.3,414.1,304.2,414.3,304,414.6z" class="st4"/><path d="M289.5,398.3c-0.3,0.2-0.6,0.3-0.9,0.3s-0.6-0.2-0.8-0.5c-0.2-0.3-0.3-0.6-0.3-0.9s0.2-0.6,0.5-0.8 s0.5-0.3,0.8-0.2c0.3,0,0.6,0.2,0.8,0.6c0.2,0.3,0.3,0.6,0.3,0.9C290,397.8,289.8,398.1,289.5,398.3z" class="st3"/><path d="M278.1,379.7c-0.3,0.2-0.6,0.2-0.9,0.1c-0.3-0.1-0.5-0.3-0.7-0.7s-0.2-0.7-0.1-1s0.3-0.5,0.6-0.7 c0.3-0.1,0.6-0.2,0.9-0.1s0.5,0.3,0.7,0.7s0.2,0.7,0.1,1S278.4,379.6,278.1,379.7z" class="st3"/><path d="M270,359.5c-0.3,0.1-0.6,0.1-0.9-0.1c-0.3-0.1-0.5-0.4-0.6-0.8c-0.1-0.4-0.1-0.7,0.1-1s0.4-0.4,0.7-0.5 c0.3-0.1,0.6-0.1,0.9,0.1s0.5,0.4,0.6,0.8c0.1,0.4,0.1,0.7-0.1,1C270.6,359.2,270.3,359.4,270,359.5z" class="st3"/><path d="M265.6,338.2c-0.3,0-0.6,0-0.9-0.2s-0.4-0.5-0.4-0.9c0-0.4,0-0.7,0.2-1c0.2-0.2,0.5-0.4,0.8-0.4 s0.6,0,0.8,0.2s0.4,0.5,0.4,0.9c0,0.4,0,0.7-0.2,0.9C266.2,338,265.9,338.1,265.6,338.2z" class="st3"/><path d="M264.9,316.4c-0.3,0-0.6-0.1-0.8-0.4c-0.2-0.2-0.3-0.5-0.3-0.9c0-0.4,0.2-0.7,0.4-0.9 c0.2-0.2,0.5-0.3,0.9-0.3c0.3,0,0.6,0.1,0.8,0.4s0.3,0.5,0.3,0.9c0,0.4-0.2,0.7-0.4,0.9C265.6,316.3,265.2,316.4,264.9,316.4z" class="st3"/><path d="M267.9,294.8c-0.3-0.1-0.6-0.2-0.8-0.5c-0.2-0.2-0.2-0.6-0.1-1c0.1-0.4,0.3-0.7,0.5-0.8s0.6-0.2,0.9-0.1 c0.3,0.1,0.6,0.2,0.7,0.5c0.2,0.3,0.2,0.6,0.1,1c-0.1,0.4-0.3,0.7-0.5,0.8S268.2,294.9,267.9,294.8z" class="st3"/><path d="M274.7,274.1c-0.3-0.1-0.5-0.3-0.7-0.6c-0.1-0.3-0.1-0.6,0.1-1c0.2-0.4,0.4-0.6,0.7-0.7 c0.3-0.1,0.6-0.1,0.9,0.1c0.3,0.1,0.5,0.3,0.6,0.6s0.1,0.6-0.1,1c-0.2,0.4-0.4,0.6-0.7,0.7C275.2,274.3,275,274.3,274.7,274.1z" class="st3"/><path d="M284.9,254.9c-0.3-0.2-0.5-0.4-0.5-0.7c-0.1-0.3,0-0.6,0.2-0.9s0.5-0.5,0.8-0.6c0.3,0,0.6,0,0.9,0.2 s0.4,0.4,0.5,0.7s0,0.6-0.2,0.9s-0.5,0.5-0.8,0.6C285.4,255.1,285.2,255.1,284.9,254.9z" class="st3"/><path d="M298.2,237.7c-0.2-0.2-0.4-0.5-0.4-0.8s0.1-0.6,0.4-0.9s0.6-0.4,0.9-0.4s0.6,0.1,0.8,0.4 c0.2,0.2,0.4,0.5,0.4,0.8s-0.1,0.6-0.4,0.9s-0.6,0.4-0.9,0.4C298.8,238,298.5,237.9,298.2,237.7z" class="st4"/><path d="M314.3,223c-0.2-0.3-0.3-0.6-0.3-0.9s0.2-0.6,0.5-0.8s0.6-0.3,0.9-0.3s0.6,0.2,0.8,0.5 c0.2,0.3,0.3,0.5,0.2,0.8c0,0.3-0.2,0.6-0.5,0.8c-0.3,0.2-0.6,0.3-0.9,0.3S314.5,223.2,314.3,223z" class="st4"/><path d="M332.6,211.2c-0.2-0.3-0.2-0.6-0.1-0.9s0.3-0.5,0.6-0.7c0.4-0.2,0.7-0.2,1-0.1s0.5,0.3,0.7,0.6 c0.2,0.3,0.2,0.6,0.1,0.9s-0.3,0.5-0.7,0.7s-0.7,0.2-1,0.1S332.7,211.5,332.6,211.2z" class="st4"/><path d="M352.6,202.6c-0.1-0.3-0.1-0.6,0-0.9s0.4-0.5,0.8-0.6s0.7-0.1,1,0s0.5,0.4,0.6,0.7c0.1,0.3,0.1,0.6,0,0.9 s-0.4,0.5-0.8,0.6s-0.7,0.1-1,0S352.7,202.9,352.6,202.6z" class="st4"/><path d="M373.8,197.5c0-0.3,0-0.6,0.2-0.9s0.5-0.4,0.9-0.5s0.7,0,1,0.2c0.2,0.2,0.4,0.5,0.4,0.8s0,0.6-0.2,0.9 c-0.2,0.2-0.5,0.4-0.9,0.5s-0.7,0-0.9-0.2C374,198,373.8,197.8,373.8,197.5z" class="st4"/><path d="M395.5,195.9c0-0.3,0.1-0.6,0.3-0.8s0.5-0.3,0.9-0.3s0.7,0.1,0.9,0.4c0.2,0.2,0.3,0.5,0.3,0.9 c0,0.3-0.1,0.6-0.3,0.8s-0.5,0.3-0.9,0.3s-0.7-0.1-0.9-0.3C395.6,196.5,395.5,196.2,395.5,195.9z" class="st4"/></g><g id="Earth_1_"><circle cx="395.5" cy="324.4" r="70.5" class="st5"/><path d="M395.5,253.9c-39,0-70.5,31.6-70.5,70.5c0,39,31.6,70.5,70.5,70.5V253.9z" class="st6"/><g><path d="M383.6,355.2h5.7l6.2,13.4v-36.2h-13.4l-7.8,7.8l-5.2-5.2h-16.5v-7h10.8l13.7-29.9l-2.9-2.9l5.3-5.3h-21v3.8 l-5.6-5.6v-4.6l6.3-6.3h-15.9c-11.4,12.5-18.3,29.2-18.3,47.4c0,3,0.2,5.9,0.6,8.8l12.6,5.5v-3.8l9,4H367l6,5.5L383.6,355.2z" class="st7"/><path d="M361.6,266.6l3.9,4.4h6.7l6.4,7h10.6v-7l6.4-6.1v-11c-9.5,0-18.6,1.9-27,5.3L361.6,266.6z" class="st7"/><path d="M369.7,390c8,3.1,16.7,4.9,25.8,4.9v-4.2L369.7,390z" class="st7"/></g><g><path d="M434.9,286l-13.4,13.4v17.1l7.8,7.8h15.4l6,6v9.7l10.3,10.3c3.2-8,4.9-16.7,4.9-25.9 c0-14.2-4.2-27.4-11.4-38.4H434.9z" class="st8"/><path d="M404.2,384l-6.7,6.7h-2v4.3c13.8,0,26.8-4,37.6-10.9L404.2,384L404.2,384L404.2,384z" class="st8"/><polygon points="413.5 332.4 395.5 332.4 395.5 368.6 400.4 379.1" class="st8"/><path d="M433.7,281h17.5c-4.4-5.6-9.6-10.6-15.5-14.7l-12.2,12.2v4.2h-6.9v5.5h9.9L433.7,281z" class="st8"/><path d="M402,258.7v-4.5c-2.1-0.2-4.3-0.3-6.5-0.3v11L402,258.7z" class="st8"/></g></g><g id="Moon_Shadow"><path d="M266,303.3v20.8l0,0h-0.3h0.3h-0.3v20.5l80.3,29.8h0.2c0,0-0.1,0,0,0c4.1,0,7.5-33.7,7.5-50.3 s-1-52.2-5.1-52.2" class="st9"/><path d="M348.5,324.1c0-5-1.1-9.1-2.5-9.1l0,0l-79.7-11.3v20.4h77.3l0,0l0,0h-77.4v20.4l79.9-11.3l0,0 C347.4,333.1,348.5,329.1,348.5,324.1z" class="st10"/><path d="M346,323.2C346,323.2,346,323.3,346,323.2L346,323.2l-80.1-19.5v20.4h-0.2v20.4l80.3-19.6l0,0l0,0 c0.1,0,0.2-0.4,0.2-0.9C346.3,323.6,346.2,323.2,346,323.2z" class="st11"/><path d="M346,323.2C346,323.2,346,323.3,346,323.2L346,323.2l-20.7-5.1c-0.2,2.1-0.3,4.1-0.3,6.2 c0,1.9,0.1,3.8,0.2,5.7l20.8-5.1l0,0l0,0c0.1,0,0.2-0.4,0.2-0.9C346.3,323.6,346.2,323.2,346,323.2z" class="st12"/></g><g id="Moon_1_"><circle cx="265.4" cy="324.1" r="20.8" class="st13"/><path d="M265.9,303.3c-0.2,0-0.4,0-0.5,0c-11.5,0-20.8,9.3-20.8,20.8s9.3,20.8,20.8,20.8c0.2,0,0.4,0,0.5,0V303.3z" class="st14"/><ellipse cx="275.2" cy="331.8" class="st15" rx="3.6" ry="3.7" transform="matrix(0.9964 -8.449172e-02 8.449172e-02 0.9964 -27.0538 24.4358)"/><ellipse cx="278.2" cy="319.8" class="st15" rx="2.5" ry="2.5"/><path d="M275.4,313h-2.1h-0.4h-4.3c-0.5,0-0.9,0.4-0.9,0.9s0.4,0.9,0.9,0.9h4.3h0.4h2.1c0.5,0,0.9-0.4,0.9-0.9 C276.3,313.5,275.9,313,275.4,313z" class="st15"/></g><g id="Sun_1_"><g><rect width="27.6" height="27.6" x="-45" y="202.5" class="st16" transform="matrix(0.7071 0.7071 -0.7071 0.7071 143.8319 85.3909)"/><rect width="27.6" height="27.6" x="-45" y="418.9" class="st16" transform="matrix(0.7071 0.7071 -0.7071 0.7071 296.8324 148.771)"/><rect width="27.6" height="27.6" x="63.4" y="310.8" class="st16" transform="matrix(-0.7071 0.7071 -0.7071 -0.7071 361.3062 499.5723)"/><rect width="27.6" height="27.6" x="-153" y="310.8" class="st16" transform="matrix(-0.7071 0.7071 -0.7071 -0.7071 -8.1103 652.6079)"/><rect width="27.6" height="27.6" x="31.6" y="234" class="st16"/><rect width="27.6" height="27.6" x="-121.4" y="387" class="st16"/><rect width="27.6" height="27.6" x="31.6" y="387.2" class="st16"/><rect width="27.6" height="27.6" x="-121.4" y="234.2" class="st16"/></g><g><rect width="27.6" height="27.6" x="-4" y="210.4" class="st17" transform="matrix(-0.3871 -0.922 0.922 -0.3871 -193.1425 320.072)"/><rect width="27.6" height="27.6" x="-85.9" y="410.7" class="st17" transform="matrix(0.3871 0.922 -0.922 0.3871 347.241 326.6584)"/><rect width="27.6" height="27.6" x="55.3" y="351.7" class="st17" transform="matrix(-0.922 0.3871 -0.3871 -0.922 274.2553 675.7186)"/><rect width="27.6" height="27.6" x="-145" y="269.8" class="st17" transform="matrix(-0.3871 -0.922 0.922 -0.3871 -443.4239 272.4624)"/><rect width="27.6" height="27.6" x="54.9" y="268.6" class="st17" transform="matrix(-0.9257 -0.3782 0.3782 -0.9257 25.4798 569.769)"/><rect width="27.6" height="27.6" x="-144.7" y="352.4" class="st17" transform="matrix(0.9257 0.3782 -0.3782 0.9257 128.7619 76.7026)"/><rect width="27.6" height="27.6" x="-3.1" y="410.5" class="st17" transform="matrix(0.9257 0.3782 -0.3782 0.9257 161.2615 27.4566)"/><rect width="27.6" height="27.6" x="-86.8" y="210.9" class="st17" transform="matrix(-0.9257 -0.3782 0.3782 -0.9257 -225.5254 405.0673)"/></g><circle cx="-31" cy="324.1" r="110.5" class="st18"/><circle cx="-31" cy="323.9" r="107.3" class="st19"/><g><ellipse cx="-31.3" cy="229.3" class="st20" rx="4.2" ry="4.2"/><ellipse cx="-31.3" cy="419.6" class="st20" rx="4.2" ry="4.2"/><ellipse cx="63.8" cy="324.4" class="st20" rx="4.2" ry="4.2"/><ellipse cx="-126.5" cy="324.4" class="st20" rx="4.2" ry="4.2"/><circle cx="35.9" cy="257.1" r="4.2" class="st20"/><circle cx="-98.6" cy="391.7" r="4.2" class="st20"/><circle cx="35.9" cy="391.7" r="4.2" class="st20"/><circle cx="-98.6" cy="257.1" r="4.2" class="st20"/><circle cx="-6.7" cy="232.5" r="4.2" class="st20"/><circle cx="-56" cy="416.3" r="4.2" class="st20"/><circle cx="60.6" cy="349" r="4.2" class="st20"/><circle cx="-123.2" cy="299.8" r="4.2" class="st20"/><circle cx="51.1" cy="276.8" r="4.2" class="st20"/><circle cx="-113.7" cy="372" r="4.2" class="st20"/><circle cx="16.2" cy="406.8" r="4.2" class="st20"/><circle cx="51.1" cy="372" r="4.2" class="st20"/><circle cx="-113.7" cy="276.8" r="4.2" class="st20"/><circle cx="60.6" cy="299.8" r="4.2" class="st20"/><circle cx="-123.2" cy="349" r="4.2" class="st20"/><circle cx="-56" cy="232.5" r="4.2" class="st20"/></g><g><circle cx="-21.2" cy="246.3" r="3.4" class="st21"/><circle cx="-41.1" cy="402.9" r="3.4" class="st21"/><circle cx="-109.4" cy="314.7" r="3.4" class="st21"/><circle cx="-93.5" cy="372.9" r="3.5" class="st21"/><circle cx="-79.5" cy="262.2" r="3.5" class="st21"/><circle cx="-1.3" cy="251.6" r="3.5" class="st21"/><circle cx="41.9" cy="354.4" r="3.5" class="st21"/><circle cx="-104.2" cy="294.8" r="3.5" class="st21"/><circle cx="41.6" cy="294" r="3.5" class="st21"/><circle cx="-103.9" cy="355.1" r="3.5" class="st21"/><circle cx="-.6" cy="397.3" r="3.5" class="st21"/><circle cx="-61.7" cy="251.9" r="3.5" class="st21"/><circle cx="16.6" cy="261.8" r="3.5" class="st21"/><circle cx="-78.9" cy="387.4" r="3.5" class="st21"/><circle cx="31.7" cy="372.3" r="3.5" class="st21"/><circle cx="47" cy="313.9" r="3.5" class="st21"/><circle cx="-109.3" cy="335.3" r="3.5" class="st21"/><circle cx="-20.5" cy="402.8" r="3.5" class="st21"/><circle cx="-41.8" cy="246.4" r="3.5" class="st21"/></g><g><circle cx="-14.8" cy="261.7" r="2.8" class="st22"/><circle cx="-47.9" cy="387.1" r="2.8" class="st22"/><circle cx="31.4" cy="341" r="2.8" class="st22"/><circle cx="-94" cy="307.9" r="2.8" class="st22"/><circle cx="24.7" cy="291.8" r="2.8" class="st22"/><circle cx="-87.4" cy="357" r="2.8" class="st22"/><circle cx="-64" cy="268.4" r="2.8" class="st22"/><circle cx="-63.6" cy="380.7" r="2.8" class="st22"/><circle cx="24.9" cy="356.6" r="2.8" class="st22"/><circle cx="-87.6" cy="292.2" r="2.8" class="st22"/><circle cx="31.3" cy="307.4" r="2.8" class="st22"/><circle cx="-93.9" cy="341.4" r="2.8" class="st22"/><circle cx="-14.3" cy="387" r="2.8" class="st22"/><circle cx="14.4" cy="278.4" r="2.8" class="st22"/><circle cx="14.7" cy="370.1" r="2.8" class="st22"/><circle cx="-31.1" cy="389.3" r="2.8" class="st22"/><circle cx="-31.6" cy="259.6" r="2.8" class="st22"/></g></g><g id="Lines"><line x1="340" x2="291.3" y1="438" y2="490.3" class="st23"/><line x1="345.7" x2="254.9" y1="331.1" y2="448.7" class="st23"/><line x1="346.3" x2="255.5" y1="324.1" y2="430.7" class="st23"/><line x1="254.7" x2="298.7" y1="215.9" y2="321.6" class="st23"/><line x1="254.7" x2="298.7" y1="199.9" y2="305.6" class="st23"/></g><g id="Names"><g class="st24"><path d="M260.4,190.1v5h-1.7v-12.8h4.7c0.7,0,1.4,0.1,1.9,0.3s1,0.5,1.4,0.8s0.7,0.8,0.9,1.2c0.2,0.5,0.3,1,0.3,1.6 s-0.1,1.2-0.3,1.6c-0.2,0.5-0.5,0.9-0.9,1.2c-0.4,0.3-0.8,0.6-1.4,0.8s-1.2,0.3-1.9,0.3H260.4L260.4,190.1z M260.4,188.7h3 c0.5,0,0.9-0.1,1.3-0.2s0.6-0.3,0.9-0.5c0.2-0.2,0.4-0.5,0.5-0.8s0.2-0.6,0.2-1c0-0.3-0.1-0.6-0.2-1c-0.1-0.3-0.3-0.6-0.5-0.8 c-0.2-0.2-0.5-0.4-0.9-0.6s-0.8-0.2-1.3-0.2h-3V188.7z" class="st14"/><path d="M273.6,195.3c-0.7,0-1.3-0.1-1.8-0.3c-0.5-0.2-1-0.5-1.4-1c-0.4-0.4-0.7-0.9-0.9-1.5 c-0.2-0.6-0.3-1.2-0.3-1.8v-0.4c0-0.8,0.1-1.5,0.3-2.1s0.5-1.1,0.9-1.5s0.8-0.7,1.3-1c0.5-0.2,1-0.3,1.6-0.3 c0.7,0,1.3,0.1,1.8,0.4c0.5,0.2,0.9,0.6,1.2,1c0.3,0.4,0.6,0.9,0.7,1.5s0.2,1.2,0.2,1.9v0.7h-6.4c0,0.4,0.1,0.8,0.2,1.2 c0.1,0.4,0.3,0.7,0.6,1c0.3,0.3,0.5,0.5,0.9,0.7s0.7,0.2,1.2,0.2c0.6,0,1.1-0.1,1.5-0.4s0.7-0.5,1-0.9l1,0.8 c-0.2,0.2-0.3,0.5-0.6,0.7c-0.2,0.2-0.5,0.4-0.8,0.6s-0.6,0.3-1,0.4C274.5,195.3,274.1,195.3,273.6,195.3z M273.4,186.8 c-0.3,0-0.6,0.1-0.9,0.2s-0.5,0.3-0.7,0.5s-0.4,0.5-0.5,0.9s-0.2,0.7-0.3,1.2h4.8v-0.1c0-0.3-0.1-0.6-0.2-0.9s-0.2-0.6-0.4-0.8 c-0.2-0.2-0.4-0.4-0.7-0.6S273.9,186.8,273.4,186.8z" class="st14"/><path d="M280.8,185.6l0.1,1.2c0.3-0.4,0.8-0.8,1.2-1c0.4-0.2,1-0.4,1.6-0.4c0.5,0,0.9,0.1,1.3,0.2s0.7,0.3,1,0.6 s0.5,0.6,0.6,1.1c0.1,0.4,0.2,1,0.2,1.6v6.2h-1.6v-6.2c0-0.4,0-0.7-0.1-0.9s-0.2-0.5-0.4-0.6s-0.4-0.3-0.6-0.4s-0.5-0.1-0.8-0.1 c-0.5,0-1,0.1-1.4,0.4s-0.7,0.7-0.9,1.1v6.8h-1.6v-9.5h1.4L280.8,185.6L280.8,185.6z" class="st14"/><path d="M295,194.2c-0.3,0.4-0.7,0.6-1.1,0.8c-0.5,0.2-1,0.3-1.7,0.3c-0.5,0-0.9-0.1-1.3-0.2s-0.7-0.3-1-0.6 c-0.3-0.3-0.5-0.7-0.6-1.1s-0.2-1-0.2-1.6v-6.1h1.6v6.2c0,0.4,0,0.8,0.1,1.1s0.2,0.5,0.4,0.7c0.2,0.2,0.4,0.3,0.6,0.3 c0.2,0.1,0.4,0.1,0.7,0.1c0.7,0,1.2-0.1,1.6-0.4s0.7-0.6,0.9-1v-6.9h1.6v9.5h-1.5L295,194.2z" class="st14"/><path d="M300.6,185.6v1.1c0.3-0.4,0.7-0.7,1.2-0.9s1-0.3,1.6-0.3s1.2,0.1,1.6,0.4s0.8,0.6,1.1,1.2 c0.3-0.5,0.7-0.8,1.2-1.1s1.1-0.4,1.8-0.4c0.5,0,1,0.1,1.4,0.2s0.7,0.3,1,0.6c0.3,0.3,0.5,0.6,0.6,1.1s0.2,0.9,0.2,1.5v6.2h-1.6 v-6.3c0-0.4,0-0.7-0.1-1s-0.2-0.5-0.4-0.6c-0.2-0.1-0.4-0.3-0.6-0.3c-0.3-0.1-0.5-0.1-0.8-0.1s-0.6,0.1-0.9,0.2s-0.5,0.2-0.7,0.4 c-0.2,0.2-0.3,0.4-0.4,0.6s-0.2,0.5-0.2,0.8v6.3H305V189c0-0.4,0-0.7-0.1-0.9s-0.2-0.5-0.4-0.6s-0.4-0.3-0.6-0.4 s-0.5-0.1-0.8-0.1c-0.6,0-1,0.1-1.4,0.4s-0.6,0.6-0.8,1v6.9h-1.6v-9.5h1.3V185.6z" class="st14"/><path d="M322.9,190.5c0,0.7-0.1,1.3-0.2,1.9c-0.2,0.6-0.4,1.1-0.7,1.5c-0.3,0.4-0.7,0.8-1.2,1s-1,0.4-1.6,0.4 s-1.2-0.1-1.6-0.3c-0.5-0.2-0.8-0.5-1.2-0.9l-0.1,1.1h-1.5v-13.5h1.6v5c0.3-0.4,0.7-0.7,1.1-0.9s1-0.3,1.6-0.3s1.1,0.1,1.6,0.4 s0.8,0.6,1.2,1c0.3,0.4,0.6,0.9,0.7,1.5c0.2,0.6,0.2,1.3,0.2,2v0.1L322.9,190.5L322.9,190.5z M321.3,190.3c0-0.5,0-0.9-0.1-1.3 s-0.2-0.8-0.4-1.1c-0.2-0.3-0.5-0.6-0.8-0.8s-0.7-0.3-1.2-0.3c-0.3,0-0.6,0-0.8,0.1c-0.2,0.1-0.5,0.2-0.6,0.3s-0.4,0.3-0.5,0.5 s-0.3,0.4-0.4,0.6v4.1c0.1,0.2,0.2,0.4,0.4,0.6s0.3,0.3,0.5,0.5s0.4,0.2,0.6,0.3c0.2,0.1,0.5,0.1,0.8,0.1c0.4,0,0.8-0.1,1.1-0.3 s0.6-0.4,0.8-0.7c0.2-0.3,0.3-0.7,0.4-1.1s0.1-0.9,0.1-1.3v-0.2L321.3,190.3L321.3,190.3z" class="st14"/><path d="M329.6,187.1c-0.1,0-0.3,0-0.4,0s-0.3,0-0.4,0c-0.6,0-1,0.1-1.4,0.4s-0.6,0.6-0.8,1v6.8H325v-9.5h1.6v1.1 c0.2-0.4,0.6-0.7,0.9-0.9c0.3-0.2,0.8-0.3,1.3-0.3c0.1,0,0.3,0,0.4,0c0.2,0,0.3,0.1,0.3,0.1v1.3H329.6z" class="st14"/><path d="M336.6,195.1c-0.1-0.1-0.1-0.3-0.1-0.4s-0.1-0.4-0.1-0.6c-0.2,0.2-0.3,0.3-0.5,0.5s-0.4,0.3-0.6,0.4 s-0.5,0.2-0.7,0.3c-0.3,0.1-0.5,0.1-0.8,0.1c-0.5,0-0.9-0.1-1.3-0.2s-0.7-0.3-1-0.6s-0.5-0.5-0.6-0.9c-0.2-0.3-0.2-0.7-0.2-1.1 c0-0.5,0.1-1,0.3-1.3c0.2-0.4,0.5-0.7,0.9-1s0.8-0.5,1.3-0.6s1.1-0.2,1.8-0.2h1.6v-0.7c0-0.6-0.2-1-0.5-1.4 c-0.3-0.3-0.8-0.5-1.5-0.5c-0.3,0-0.6,0-0.8,0.1c-0.2,0.1-0.5,0.2-0.6,0.3c-0.2,0.1-0.3,0.3-0.4,0.5s-0.1,0.4-0.1,0.6h-1.6 c0-0.3,0.1-0.7,0.3-1s0.4-0.6,0.8-0.9c0.3-0.3,0.7-0.5,1.2-0.7s1-0.2,1.6-0.2c0.5,0,1,0.1,1.4,0.2s0.8,0.3,1.1,0.6 c0.3,0.3,0.6,0.6,0.7,1s0.3,0.9,0.3,1.4v4.4c0,0.3,0,0.7,0.1,1s0.1,0.7,0.2,0.9v0.1L336.6,195.1L336.6,195.1L336.6,195.1z M333.9,193.9c0.3,0,0.6,0,0.8-0.1c0.2-0.1,0.5-0.2,0.7-0.3s0.4-0.3,0.5-0.5s0.3-0.3,0.4-0.5v-2h-1.4c-0.9,0-1.6,0.1-2.2,0.4 c-0.5,0.3-0.8,0.7-0.8,1.3c0,0.2,0,0.4,0.1,0.6s0.2,0.4,0.3,0.5c0.1,0.1,0.3,0.3,0.6,0.3C333.3,193.9,333.6,193.9,333.9,193.9z" class="st14"/></g><g class="st24"><path d="M205.4,205.5v8.7c0,0.7-0.1,1.4-0.4,1.9s-0.6,1-1,1.3s-0.9,0.6-1.5,0.8s-1.2,0.3-1.8,0.3 c-0.7,0-1.3-0.1-1.8-0.3c-0.6-0.2-1-0.4-1.5-0.8s-0.7-0.8-1-1.3s-0.4-1.2-0.4-1.9v-8.7h1.7v8.7c0,0.5,0.1,0.9,0.2,1.3 s0.3,0.7,0.6,0.9c0.3,0.2,0.6,0.4,0.9,0.5s0.8,0.2,1.2,0.2c0.4,0,0.8-0.1,1.2-0.2c0.4-0.1,0.7-0.3,0.9-0.5 c0.2-0.2,0.5-0.5,0.6-0.9s0.2-0.8,0.2-1.3v-8.7H205.4z" class="st14"/><path d="M209.3,208.8v1.1c0.3-0.4,0.7-0.7,1.2-0.9s1-0.3,1.6-0.3s1.2,0.1,1.6,0.4s0.8,0.6,1.1,1.2 c0.3-0.5,0.7-0.8,1.2-1.1s1.1-0.4,1.8-0.4c0.5,0,1,0.1,1.4,0.2s0.7,0.3,1,0.6c0.3,0.3,0.5,0.6,0.6,1.1s0.2,0.9,0.2,1.5v6.2h-1.6 v-6.3c0-0.4,0-0.7-0.1-1s-0.2-0.5-0.4-0.6c-0.2-0.1-0.4-0.3-0.6-0.3c-0.3-0.1-0.5-0.1-0.8-0.1s-0.6,0.1-0.9,0.2s-0.5,0.2-0.7,0.4 c-0.2,0.2-0.3,0.4-0.4,0.6s-0.2,0.5-0.2,0.8v6.3h-1.6v-6.2c0-0.4,0-0.7-0.1-0.9s-0.2-0.5-0.4-0.6s-0.4-0.3-0.6-0.4 s-0.5-0.1-0.8-0.1c-0.6,0-1,0.1-1.4,0.4s-0.6,0.6-0.8,1v6.9H208V209h1.3V208.8z" class="st14"/><path d="M231.6,213.6c0,0.7-0.1,1.3-0.2,1.9c-0.2,0.6-0.4,1.1-0.7,1.5c-0.3,0.4-0.7,0.8-1.2,1s-1,0.4-1.6,0.4 s-1.2-0.1-1.6-0.3c-0.5-0.2-0.8-0.5-1.2-0.9l-0.1,1.1h-1.5v-13.5h1.6v5c0.3-0.4,0.7-0.7,1.1-0.9c0.4-0.2,1-0.3,1.6-0.3 s1.1,0.1,1.6,0.4s0.8,0.6,1.2,1c0.3,0.4,0.6,0.9,0.7,1.5c0.2,0.6,0.2,1.3,0.2,2v0.1L231.6,213.6L231.6,213.6z M230,213.4 c0-0.5,0-0.9-0.1-1.3s-0.2-0.8-0.4-1.1s-0.5-0.6-0.8-0.8c-0.3-0.2-0.7-0.3-1.2-0.3c-0.3,0-0.6,0-0.8,0.1s-0.5,0.2-0.6,0.3 c-0.1,0.1-0.4,0.3-0.5,0.5s-0.3,0.4-0.4,0.6v4.1c0.1,0.2,0.2,0.4,0.4,0.6s0.3,0.3,0.5,0.5s0.4,0.2,0.6,0.3s0.5,0.1,0.8,0.1 c0.4,0,0.8-0.1,1.1-0.3c0.3-0.2,0.6-0.4,0.8-0.7s0.3-0.7,0.4-1.1s0.1-0.9,0.1-1.3v-0.2L230,213.4L230,213.4z" class="st14"/><path d="M238.2,210.2c-0.1,0-0.3,0-0.4,0s-0.3,0-0.4,0c-0.6,0-1,0.1-1.4,0.4s-0.6,0.6-0.8,1v6.8h-1.5v-9.5h1.6v1.1 c0.2-0.4,0.6-0.7,0.9-0.9c0.3-0.2,0.8-0.3,1.3-0.3c0.1,0,0.3,0,0.4,0c0.2,0,0.3,0.1,0.3,0.1L238.2,210.2L238.2,210.2z" class="st14"/><path d="M245.3,218.3c-0.1-0.1-0.1-0.3-0.1-0.4s-0.1-0.4-0.1-0.6c-0.2,0.2-0.3,0.3-0.5,0.5s-0.4,0.3-0.6,0.4 s-0.5,0.2-0.7,0.3c-0.3,0.1-0.5,0.1-0.8,0.1c-0.5,0-0.9-0.1-1.3-0.2s-0.7-0.3-1-0.6s-0.5-0.5-0.6-0.9c-0.2-0.3-0.2-0.7-0.2-1.1 c0-0.5,0.1-1,0.3-1.3c0.2-0.4,0.5-0.7,0.9-1s0.8-0.5,1.3-0.6s1.1-0.2,1.8-0.2h1.6V212c0-0.6-0.2-1-0.5-1.4 c-0.3-0.3-0.8-0.5-1.5-0.5c-0.3,0-0.6,0-0.8,0.1c-0.2,0.1-0.5,0.2-0.6,0.3c-0.2,0.1-0.3,0.3-0.4,0.5s-0.1,0.4-0.1,0.6h-1.6 c0-0.3,0.1-0.7,0.3-1s0.4-0.6,0.8-0.9c0.3-0.3,0.7-0.5,1.2-0.7s1-0.2,1.6-0.2c0.5,0,1,0.1,1.4,0.2s0.8,0.3,1.1,0.6 c0.3,0.3,0.6,0.6,0.7,1s0.3,0.9,0.3,1.4v4.4c0,0.3,0,0.7,0.1,1s0.1,0.7,0.2,0.9v0.1h-2.2L245.3,218.3L245.3,218.3z M242.6,217 c0.3,0,0.6,0,0.8-0.1c0.2-0.1,0.5-0.2,0.7-0.3s0.4-0.3,0.5-0.5s0.3-0.3,0.4-0.5v-2h-1.3c-0.9,0-1.6,0.1-2.2,0.4 c-0.5,0.3-0.8,0.7-0.8,1.3c0,0.2,0,0.4,0.1,0.6s0.2,0.4,0.3,0.5c0.1,0.1,0.3,0.3,0.6,0.3C242,217,242.3,217,242.6,217z" class="st14"/></g><g class="st24"><path d="M201,476.4l4.2,10.4l4.2-10.4h2.2v12.8h-1.7v-5l0.2-5.4l-4.2,10.4h-1.3l-4.2-10.3l0.2,5.4v5h-1.7v-12.8 L201,476.4L201,476.4z" class="st14"/><path d="M213.9,484.3c0-0.7,0.1-1.3,0.3-1.9c0.2-0.6,0.5-1.1,0.9-1.5s0.8-0.8,1.4-1s1.1-0.4,1.8-0.4 c0.7,0,1.3,0.1,1.8,0.4s1,0.6,1.4,1s0.7,0.9,0.9,1.5c0.2,0.6,0.3,1.2,0.3,1.9v0.2c0,0.7-0.1,1.3-0.3,1.9 c-0.2,0.6-0.5,1.1-0.9,1.5s-0.8,0.8-1.4,1c-0.5,0.2-1.1,0.4-1.8,0.4s-1.3-0.1-1.8-0.4c-0.5-0.2-1-0.6-1.4-1s-0.7-0.9-0.9-1.5 c-0.2-0.6-0.3-1.2-0.3-1.9V484.3z M215.5,484.5c0,0.5,0.1,0.9,0.2,1.3s0.3,0.8,0.5,1.1s0.5,0.6,0.8,0.8s0.7,0.3,1.2,0.3 c0.4,0,0.8-0.1,1.2-0.3c0.4-0.2,0.6-0.4,0.8-0.8c0.2-0.3,0.4-0.7,0.5-1.1s0.2-0.9,0.2-1.3v-0.2c0-0.5-0.1-0.9-0.2-1.3 s-0.3-0.8-0.5-1.1s-0.5-0.6-0.8-0.8s-0.7-0.3-1.2-0.3c-0.4,0-0.8,0.1-1.2,0.3c-0.3,0.2-0.6,0.4-0.8,0.8c-0.2,0.4-0.4,0.7-0.5,1.1 s-0.2,0.9-0.2,1.3V484.5z" class="st14"/><path d="M224.2,484.3c0-0.7,0.1-1.3,0.3-1.9c0.2-0.6,0.5-1.1,0.9-1.5s0.8-0.8,1.4-1s1.1-0.4,1.8-0.4 c0.7,0,1.3,0.1,1.8,0.4s1,0.6,1.4,1s0.7,0.9,0.9,1.5c0.2,0.6,0.3,1.2,0.3,1.9v0.2c0,0.7-0.1,1.3-0.3,1.9 c-0.2,0.6-0.5,1.1-0.9,1.5s-0.8,0.8-1.4,1c-0.5,0.2-1.1,0.4-1.8,0.4s-1.3-0.1-1.8-0.4c-0.5-0.2-1-0.6-1.4-1s-0.7-0.9-0.9-1.5 c-0.2-0.6-0.3-1.2-0.3-1.9V484.3z M225.8,484.5c0,0.5,0.1,0.9,0.2,1.3s0.3,0.8,0.5,1.1s0.5,0.6,0.8,0.8s0.7,0.3,1.2,0.3 c0.4,0,0.8-0.1,1.2-0.3c0.4-0.2,0.6-0.4,0.8-0.8c0.2-0.3,0.4-0.7,0.5-1.1s0.2-0.9,0.2-1.3v-0.2c0-0.5-0.1-0.9-0.2-1.3 s-0.3-0.8-0.5-1.1s-0.5-0.6-0.8-0.8s-0.7-0.3-1.2-0.3c-0.4,0-0.8,0.1-1.2,0.3c-0.3,0.2-0.6,0.4-0.8,0.8c-0.2,0.4-0.4,0.7-0.5,1.1 s-0.2,0.9-0.2,1.3V484.5z" class="st14"/><path d="M236.4,479.7l0.1,1.2c0.3-0.4,0.8-0.8,1.2-1s1-0.4,1.6-0.4c0.5,0,0.9,0.1,1.3,0.2c0.4,0.1,0.7,0.3,1,0.6 s0.5,0.6,0.6,1.1c0.1,0.4,0.2,1,0.2,1.6v6.2h-1.7V483c0-0.4,0-0.7-0.1-0.9s-0.2-0.5-0.4-0.6s-0.4-0.3-0.6-0.4 c-0.2-0.1-0.5-0.1-0.8-0.1c-0.5,0-1,0.1-1.4,0.4c-0.4,0.3-0.7,0.7-0.9,1.1v6.8h-1.6v-9.6H236.4z" class="st14"/><path d="M245.7,476.8c0,0.3,0,0.5-0.1,0.8s-0.2,0.6-0.3,0.9s-0.3,0.5-0.5,0.8s-0.4,0.5-0.7,0.7l-0.9-0.6 c0.3-0.4,0.5-0.8,0.6-1.2s0.2-0.9,0.2-1.3v-1.2h1.6L245.7,476.8L245.7,476.8z" class="st14"/><path d="M252.2,486.7c0-0.2,0-0.3-0.1-0.5s-0.2-0.3-0.3-0.4c-0.2-0.1-0.4-0.3-0.7-0.4s-0.7-0.2-1.1-0.3 c-0.5-0.1-1-0.2-1.4-0.4s-0.8-0.3-1.1-0.5c-0.3-0.2-0.5-0.5-0.7-0.8s-0.2-0.6-0.2-1s0.1-0.7,0.3-1.1s0.4-0.6,0.7-0.9 c0.3-0.3,0.7-0.5,1.1-0.6c0.4-0.2,0.9-0.2,1.5-0.2s1.1,0.1,1.5,0.2c0.4,0.2,0.8,0.4,1.1,0.6c0.3,0.2,0.6,0.6,0.7,0.9 c0.2,0.4,0.2,0.7,0.2,1.2h-1.6c0-0.2,0-0.4-0.1-0.6c-0.1-0.2-0.2-0.4-0.4-0.5c-0.2-0.1-0.4-0.3-0.6-0.4s-0.5-0.1-0.9-0.1 c-0.3,0-0.6,0-0.9,0.1c-0.2,0.1-0.4,0.2-0.6,0.3s-0.3,0.3-0.3,0.4c-0.1,0.2-0.1,0.3-0.1,0.5s0,0.3,0.1,0.5s0.2,0.3,0.3,0.4 c0.2,0.1,0.4,0.2,0.7,0.3c0.3,0.1,0.7,0.2,1.1,0.3c0.6,0.1,1.1,0.3,1.5,0.5s0.8,0.4,1.1,0.6c0.3,0.2,0.5,0.5,0.6,0.8 s0.2,0.6,0.2,1s-0.1,0.8-0.3,1.1s-0.4,0.6-0.7,0.9c-0.3,0.3-0.7,0.4-1.2,0.6c-0.5,0.1-1,0.2-1.5,0.2c-0.6,0-1.2-0.1-1.7-0.3 s-0.9-0.4-1.2-0.7c-0.3-0.3-0.6-0.6-0.7-1s-0.3-0.8-0.3-1.1h1.6c0,0.3,0.1,0.6,0.2,0.8s0.3,0.4,0.5,0.5s0.5,0.2,0.7,0.3 s0.5,0.1,0.8,0.1s0.6,0,0.9-0.1s0.5-0.2,0.6-0.3s0.3-0.3,0.4-0.4C252.2,487,252.2,486.9,252.2,486.7z" class="st14"/><path d="M270.5,483.2c0,1-0.1,1.8-0.4,2.6c-0.2,0.8-0.6,1.4-1,1.9s-1,0.9-1.6,1.2s-1.3,0.4-2.1,0.4 c-0.8,0-1.5-0.1-2.1-0.4s-1.2-0.7-1.6-1.2s-0.8-1.2-1.1-1.9c-0.3-0.8-0.4-1.6-0.4-2.6v-0.8c0-1,0.1-1.8,0.4-2.6s0.6-1.4,1.1-1.9 s1-0.9,1.6-1.2s1.3-0.4,2.1-0.4c0.8,0,1.5,0.1,2.1,0.4s1.2,0.7,1.6,1.2s0.8,1.2,1,1.9c0.2,0.8,0.4,1.6,0.4,2.6V483.2z M268.8,482.4c0-0.8-0.1-1.4-0.2-2s-0.4-1.1-0.7-1.5s-0.7-0.7-1.1-0.9s-0.9-0.3-1.5-0.3c-0.5,0-1,0.1-1.4,0.3s-0.8,0.5-1.1,0.9 s-0.5,0.9-0.7,1.5s-0.2,1.3-0.2,2v0.8c0,0.8,0.1,1.4,0.3,2s0.4,1.1,0.7,1.5c0.3,0.4,0.7,0.7,1.1,0.9s0.9,0.3,1.4,0.3 c0.6,0,1-0.1,1.5-0.3s0.8-0.5,1.1-0.9c0.3-0.4,0.5-0.9,0.7-1.5s0.2-1.3,0.2-2L268.8,482.4L268.8,482.4z" class="st14"/><path d="M277.4,481.1c-0.1,0-0.3,0-0.4,0s-0.3,0-0.4,0c-0.6,0-1,0.1-1.4,0.4s-0.6,0.6-0.8,1v6.8h-1.6v-9.6h1.6v1.1 c0.2-0.4,0.6-0.7,0.9-0.9s0.8-0.3,1.3-0.3c0.1,0,0.3,0,0.4,0c0.2,0,0.3,0.1,0.3,0.1v1.4H277.4z" class="st14"/><path d="M286.9,484.5c0,0.7-0.1,1.3-0.2,1.9c-0.2,0.6-0.4,1.1-0.7,1.5c-0.3,0.4-0.7,0.8-1.2,1s-1,0.4-1.6,0.4 s-1.2-0.1-1.6-0.3c-0.5-0.2-0.8-0.5-1.2-0.9l-0.1,1.1h-1.5v-13.5h1.6v5c0.3-0.4,0.7-0.7,1.1-0.9s1-0.3,1.6-0.3s1.1,0.1,1.6,0.4 s0.8,0.6,1.2,1c0.3,0.4,0.6,0.9,0.7,1.5c0.2,0.6,0.2,1.3,0.2,2v0.1H286.9z M285.3,484.4c0-0.5,0-0.9-0.1-1.3s-0.2-0.8-0.4-1.1 c-0.2-0.3-0.5-0.6-0.8-0.8s-0.7-0.3-1.2-0.3c-0.3,0-0.6,0-0.8,0.1s-0.5,0.2-0.6,0.3s-0.4,0.3-0.5,0.5s-0.3,0.4-0.4,0.6v4.1 c0.1,0.2,0.2,0.4,0.4,0.6c0.2,0.2,0.3,0.3,0.5,0.5s0.4,0.2,0.6,0.3s0.5,0.1,0.8,0.1c0.4,0,0.8-0.1,1.1-0.3s0.6-0.4,0.8-0.7 s0.3-0.7,0.4-1.1c0.1-0.4,0.1-0.9,0.1-1.3v-0.2L285.3,484.4L285.3,484.4z" class="st14"/><path d="M289,477.2c0-0.3,0.1-0.5,0.2-0.7s0.4-0.3,0.7-0.3s0.6,0.1,0.7,0.3s0.2,0.4,0.2,0.7s-0.1,0.5-0.2,0.7 s-0.4,0.3-0.7,0.3s-0.6-0.1-0.7-0.3S289,477.4,289,477.2z M290.8,489.2h-1.6v-9.5h1.6V489.2z" class="st14"/><path d="M295.6,477.4v2.3h1.8v1.3h-1.8v5.9c0,0.2,0,0.4,0.1,0.6c0.1,0.1,0.1,0.3,0.2,0.3s0.2,0.1,0.3,0.2 c0.1,0,0.3,0,0.4,0s0.3,0,0.4,0s0.3,0,0.3-0.1v1.3c-0.1,0-0.3,0.1-0.5,0.1s-0.5,0.1-0.7,0.1c-0.3,0-0.6,0-0.8-0.1 c-0.3-0.1-0.5-0.2-0.7-0.4s-0.4-0.5-0.5-0.8s-0.2-0.7-0.2-1.2V481h-1.7v-1.3h1.7v-2.3H295.6z" class="st14"/></g><g class="st24"><path d="M144.1,456.1v5h-1.7v-12.8h4.7c0.7,0,1.4,0.1,1.9,0.3s1,0.5,1.4,0.8s0.7,0.8,0.9,1.2c0.2,0.5,0.3,1,0.3,1.6 s-0.1,1.2-0.3,1.6c-0.2,0.5-0.5,0.9-0.9,1.2s-0.8,0.6-1.4,0.8s-1.2,0.3-1.9,0.3L144.1,456.1L144.1,456.1z M144.1,454.7h3 c0.5,0,0.9-0.1,1.3-0.2s0.6-0.3,0.9-0.5c0.2-0.2,0.4-0.5,0.5-0.8s0.2-0.6,0.2-1c0-0.3-0.1-0.6-0.2-1c-0.1-0.3-0.3-0.6-0.5-0.8 s-0.5-0.4-0.9-0.6c-0.4-0.2-0.8-0.2-1.3-0.2h-3V454.7z" class="st14"/><path d="M159.3,461.1c-0.1-0.1-0.1-0.3-0.1-0.4s-0.1-0.4-0.1-0.6c-0.2,0.2-0.3,0.3-0.5,0.5s-0.4,0.3-0.6,0.4 s-0.5,0.2-0.7,0.3c-0.3,0.1-0.5,0.1-0.8,0.1c-0.5,0-0.9-0.1-1.3-0.2c-0.4-0.1-0.7-0.3-1-0.6s-0.5-0.5-0.6-0.9 c-0.2-0.3-0.2-0.7-0.2-1.1c0-0.5,0.1-1,0.3-1.3c0.2-0.4,0.5-0.7,0.9-1s0.8-0.5,1.3-0.6s1.1-0.2,1.8-0.2h1.6v-0.7 c0-0.6-0.2-1-0.5-1.4c-0.3-0.3-0.8-0.5-1.5-0.5c-0.3,0-0.6,0-0.8,0.1c-0.2,0.1-0.5,0.2-0.6,0.3c-0.2,0.1-0.3,0.3-0.4,0.5 s-0.1,0.4-0.1,0.6h-1.6c0-0.3,0.1-0.7,0.3-1s0.4-0.6,0.8-0.9c0.3-0.3,0.7-0.5,1.2-0.7s1-0.2,1.6-0.2c0.5,0,1,0.1,1.4,0.2 c0.4,0.1,0.8,0.3,1.1,0.6c0.3,0.3,0.6,0.6,0.7,1s0.3,0.9,0.3,1.4v4.4c0,0.3,0,0.7,0.1,1s0.1,0.7,0.3,0.9v0.1L159.3,461.1 L159.3,461.1z M156.6,459.9c0.3,0,0.6,0,0.8-0.1c0.2-0.1,0.5-0.2,0.7-0.3s0.4-0.3,0.5-0.5s0.3-0.3,0.4-0.5v-2h-1.4 c-0.9,0-1.6,0.1-2.2,0.4c-0.5,0.3-0.8,0.7-0.8,1.3c0,0.2,0,0.4,0.1,0.6c0.1,0.2,0.2,0.4,0.3,0.5c0.1,0.1,0.3,0.3,0.6,0.3 C156,459.8,156.3,459.9,156.6,459.9z" class="st14"/><path d="M167.8,453.1c-0.1,0-0.3,0-0.4,0s-0.3,0-0.4,0c-0.6,0-1,0.1-1.4,0.4s-0.6,0.6-0.8,1v6.8h-1.6v-9.5h1.6v1.1 c0.2-0.4,0.6-0.7,0.9-0.9s0.8-0.3,1.3-0.3c0.1,0,0.3,0,0.4,0c0.2,0,0.3,0.1,0.3,0.1v1.3L167.8,453.1L167.8,453.1z" class="st14"/><path d="M171.9,449.3v2.3h1.8v1.3h-1.8v5.9c0,0.2,0,0.4,0.1,0.6c0.1,0.1,0.1,0.3,0.2,0.3s0.2,0.1,0.3,0.2 c0.1,0,0.3,0,0.4,0s0.3,0,0.4,0s0.3,0,0.3-0.1v1.3c-0.1,0-0.3,0.1-0.5,0.1s-0.5,0.1-0.7,0.1c-0.3,0-0.6,0-0.8-0.1 c-0.3-0.1-0.5-0.2-0.7-0.4s-0.4-0.5-0.5-0.8s-0.2-0.7-0.2-1.2v-5.9h-1.7v-1.3h1.7v-2.3L171.9,449.3L171.9,449.3z" class="st14"/><path d="M175.6,449.1c0-0.3,0.1-0.5,0.2-0.7s0.4-0.3,0.7-0.3s0.6,0.1,0.7,0.3s0.2,0.4,0.2,0.7s-0.1,0.5-0.2,0.7 s-0.4,0.3-0.7,0.3s-0.6-0.1-0.7-0.3S175.6,449.3,175.6,449.1z M177.4,461.1h-1.7v-9.5h1.6v9.5H177.4z" class="st14"/><path d="M185.8,461.1c-0.1-0.1-0.1-0.3-0.1-0.4s-0.1-0.4-0.1-0.6c-0.2,0.2-0.3,0.3-0.5,0.5s-0.4,0.3-0.6,0.4 s-0.5,0.2-0.7,0.3c-0.3,0.1-0.5,0.1-0.8,0.1c-0.5,0-0.9-0.1-1.3-0.2c-0.4-0.1-0.7-0.3-1-0.6s-0.5-0.5-0.6-0.9 c-0.2-0.3-0.2-0.7-0.2-1.1c0-0.5,0.1-1,0.3-1.3c0.2-0.4,0.5-0.7,0.9-1s0.8-0.5,1.3-0.6s1.1-0.2,1.8-0.2h1.6v-0.7 c0-0.6-0.2-1-0.5-1.4c-0.3-0.3-0.8-0.5-1.5-0.5c-0.3,0-0.6,0-0.8,0.1c-0.2,0.1-0.5,0.2-0.6,0.3c-0.2,0.1-0.3,0.3-0.4,0.5 s-0.1,0.4-0.1,0.6h-1.6c0-0.3,0.1-0.7,0.3-1s0.4-0.6,0.8-0.9c0.3-0.3,0.7-0.5,1.2-0.7s1-0.2,1.6-0.2c0.5,0,1,0.1,1.4,0.2 c0.4,0.1,0.8,0.3,1.1,0.6c0.3,0.3,0.6,0.6,0.7,1s0.3,0.9,0.3,1.4v4.4c0,0.3,0,0.7,0.1,1s0.1,0.7,0.3,0.9v0.1L185.8,461.1 L185.8,461.1z M183.1,459.9c0.3,0,0.6,0,0.8-0.1c0.2-0.1,0.5-0.2,0.7-0.3s0.4-0.3,0.5-0.5s0.3-0.3,0.4-0.5v-2h-1.4 c-0.9,0-1.6,0.1-2.2,0.4c-0.5,0.3-0.8,0.7-0.8,1.3c0,0.2,0,0.4,0.1,0.6c0.1,0.2,0.2,0.4,0.3,0.5c0.1,0.1,0.3,0.3,0.6,0.3 C182.6,459.8,182.8,459.9,183.1,459.9z" class="st14"/><path d="M191.5,461.1h-1.6v-13.5h1.6V461.1z" class="st14"/><path d="M206.1,455.2h-5.5v4.5h6.4v1.4h-8.1v-12.8h8v1.4h-6.4v4.1h5.5v1.4L206.1,455.2L206.1,455.2z" class="st14"/><path d="M212.4,460c0.3,0,0.6,0,0.8-0.1c0.2-0.1,0.5-0.2,0.7-0.4s0.4-0.4,0.5-0.6c0.1-0.2,0.2-0.5,0.2-0.7h1.5 c0,0.4-0.1,0.8-0.3,1.2c-0.2,0.4-0.5,0.7-0.8,1s-0.7,0.5-1.2,0.7c-0.4,0.2-0.9,0.3-1.4,0.3c-0.7,0-1.3-0.1-1.9-0.4 c-0.5-0.3-1-0.6-1.3-1s-0.6-0.9-0.8-1.5s-0.3-1.2-0.3-1.8v-0.4c0-0.6,0.1-1.2,0.3-1.8s0.4-1.1,0.8-1.5s0.8-0.8,1.3-1 c0.5-0.3,1.1-0.4,1.9-0.4c0.6,0,1.1,0.1,1.5,0.3s0.8,0.4,1.2,0.7c0.3,0.3,0.6,0.7,0.8,1.1c0.2,0.4,0.3,0.9,0.3,1.4h-1.5 c0-0.3-0.1-0.6-0.2-0.8c-0.1-0.3-0.3-0.5-0.5-0.7s-0.4-0.3-0.7-0.5s-0.6-0.2-0.9-0.2c-0.5,0-0.9,0.1-1.3,0.3s-0.6,0.5-0.8,0.8 c-0.2,0.3-0.3,0.7-0.4,1.1c-0.1,0.4-0.1,0.8-0.1,1.2v0.4c0,0.4,0,0.8,0.1,1.2s0.2,0.8,0.4,1.1c0.2,0.3,0.5,0.6,0.8,0.8 C211.4,460,211.9,460,212.4,460z" class="st14"/><path d="M219.8,461.1h-1.6v-13.5h1.6V461.1z" class="st14"/><path d="M222.4,449.1c0-0.3,0.1-0.5,0.2-0.7s0.4-0.3,0.7-0.3s0.6,0.1,0.7,0.3s0.2,0.4,0.2,0.7s-0.1,0.5-0.2,0.7 s-0.4,0.3-0.7,0.3s-0.6-0.1-0.7-0.3C222.5,449.6,222.4,449.3,222.4,449.1z M224.2,461.1h-1.6v-9.5h1.6V461.1z" class="st14"/><path d="M234.8,456.5c0,0.7-0.1,1.3-0.2,1.9c-0.2,0.6-0.4,1.1-0.7,1.5c-0.3,0.4-0.7,0.8-1.2,1s-1,0.4-1.6,0.4 s-1.1-0.1-1.6-0.3s-0.8-0.5-1.2-0.8v4.6h-1.6v-13.2h1.5l0.1,1.1c0.3-0.4,0.7-0.7,1.2-0.9s1-0.3,1.6-0.3s1.1,0.1,1.6,0.4 s0.8,0.6,1.2,1c0.3,0.4,0.6,0.9,0.7,1.5C234.8,455,234.8,455.7,234.8,456.5L234.8,456.5z M233.2,456.3c0-0.5,0-0.9-0.1-1.3 c-0.1-0.4-0.3-0.8-0.5-1.1s-0.5-0.6-0.8-0.8s-0.7-0.3-1.2-0.3c-0.3,0-0.5,0-0.8,0.1s-0.4,0.2-0.6,0.3s-0.3,0.3-0.5,0.4 c-0.1,0.2-0.3,0.3-0.4,0.5v4.5c0.1,0.2,0.2,0.4,0.4,0.5c0.1,0.2,0.3,0.3,0.5,0.4c0.2,0.1,0.4,0.2,0.6,0.3s0.5,0.1,0.8,0.1 c0.4,0,0.8-0.1,1.1-0.3s0.6-0.4,0.8-0.8s0.4-0.7,0.5-1.1c0.1-0.4,0.1-0.9,0.1-1.3v-0.1L233.2,456.3L233.2,456.3z" class="st14"/><path d="M242.4,458.6c0-0.2,0-0.3-0.1-0.5s-0.2-0.3-0.3-0.4c-0.2-0.1-0.4-0.3-0.7-0.4c-0.3-0.1-0.7-0.2-1.1-0.3 c-0.5-0.1-1-0.2-1.4-0.4s-0.8-0.3-1.1-0.5c-0.3-0.2-0.5-0.5-0.7-0.8s-0.2-0.6-0.2-1s0.1-0.7,0.3-1.1c0.2-0.4,0.4-0.6,0.7-0.9 c0.3-0.3,0.7-0.5,1.1-0.6c0.4-0.2,0.9-0.2,1.5-0.2s1.1,0.1,1.5,0.2c0.4,0.2,0.8,0.4,1.1,0.6s0.6,0.6,0.7,0.9 c0.2,0.4,0.2,0.7,0.2,1.2h-1.6c0-0.2,0-0.4-0.1-0.6s-0.2-0.4-0.4-0.5s-0.4-0.3-0.6-0.4c-0.2-0.1-0.5-0.1-0.9-0.1 c-0.3,0-0.6,0-0.9,0.1c-0.2,0.1-0.4,0.2-0.6,0.3s-0.3,0.3-0.3,0.4c-0.1,0.2-0.1,0.3-0.1,0.5s0,0.3,0.1,0.5s0.2,0.3,0.3,0.4 c0.2,0.1,0.4,0.2,0.7,0.3c0.3,0.1,0.7,0.2,1.1,0.3c0.6,0.1,1.1,0.3,1.5,0.5s0.8,0.4,1.1,0.6s0.5,0.5,0.6,0.8s0.2,0.6,0.2,1 s-0.1,0.8-0.3,1.1c-0.2,0.3-0.4,0.6-0.7,0.9s-0.7,0.4-1.2,0.6c-0.5,0.1-1,0.2-1.5,0.2c-0.6,0-1.2-0.1-1.7-0.3s-0.9-0.4-1.2-0.7 c-0.3-0.3-0.6-0.6-0.7-1s-0.3-0.8-0.3-1.1h1.6c0,0.3,0.1,0.6,0.2,0.8s0.3,0.4,0.5,0.5s0.5,0.2,0.7,0.3s0.5,0.1,0.8,0.1 s0.6,0,0.9-0.1s0.5-0.2,0.6-0.3s0.3-0.3,0.4-0.4C242.4,459,242.4,458.8,242.4,458.6z" class="st14"/><path d="M250.1,461.3c-0.7,0-1.3-0.1-1.8-0.3s-1-0.5-1.4-1c-0.4-0.4-0.7-0.9-0.9-1.5c-0.2-0.6-0.3-1.2-0.3-1.8v-0.4 c0-0.8,0.1-1.5,0.3-2.1c0.2-0.6,0.5-1.1,0.9-1.5s0.8-0.7,1.3-1c0.5-0.2,1-0.3,1.6-0.3c0.7,0,1.3,0.1,1.8,0.4 c0.5,0.2,0.9,0.6,1.2,1s0.6,0.9,0.7,1.5s0.2,1.2,0.2,1.9v0.7h-6.4c0,0.4,0.1,0.8,0.2,1.2s0.3,0.7,0.6,1c0.3,0.3,0.5,0.5,0.9,0.7 s0.7,0.2,1.2,0.2c0.6,0,1.1-0.1,1.5-0.4s0.7-0.5,1-0.9l1,0.8c-0.2,0.2-0.3,0.5-0.6,0.7c-0.2,0.2-0.5,0.4-0.8,0.6s-0.6,0.3-1,0.4 C251,461.2,250.6,461.3,250.1,461.3z M249.9,452.8c-0.3,0-0.6,0.1-0.9,0.2c-0.3,0.1-0.5,0.3-0.7,0.5s-0.4,0.5-0.5,0.9 s-0.2,0.7-0.3,1.2h4.8v-0.1c0-0.3-0.1-0.6-0.2-0.9s-0.2-0.6-0.4-0.8s-0.4-0.4-0.7-0.6C250.7,453,250.3,452.8,249.9,452.8z" class="st14"/></g><g class="st24"><path d="M163.6,422.1h-4.1v11.4h-1.7v-11.4h-4.1v-1.4h9.9V422.1z" class="st14"/><path d="M163.9,428.7c0-0.7,0.1-1.3,0.3-1.9c0.2-0.6,0.5-1.1,0.9-1.5s0.8-0.8,1.4-1s1.1-0.4,1.8-0.4 c0.7,0,1.3,0.1,1.8,0.4c0.5,0.3,1,0.6,1.4,1s0.7,0.9,0.9,1.5c0.2,0.6,0.3,1.2,0.3,1.9v0.2c0,0.7-0.1,1.3-0.3,1.9 c-0.2,0.6-0.5,1.1-0.9,1.5s-0.8,0.8-1.4,1c-0.5,0.2-1.1,0.4-1.8,0.4s-1.3-0.1-1.8-0.4c-0.5-0.2-1-0.6-1.4-1s-0.7-0.9-0.9-1.5 c-0.2-0.6-0.3-1.2-0.3-1.9V428.7z M165.5,428.9c0,0.5,0.1,0.9,0.2,1.3s0.3,0.8,0.5,1.1s0.5,0.6,0.8,0.8s0.7,0.3,1.2,0.3 c0.4,0,0.8-0.1,1.2-0.3c0.4-0.2,0.6-0.4,0.8-0.8c0.2-0.3,0.4-0.7,0.5-1.1s0.2-0.9,0.2-1.3v-0.2c0-0.5-0.1-0.9-0.2-1.3 s-0.3-0.8-0.5-1.1s-0.5-0.6-0.8-0.8s-0.7-0.3-1.2-0.3c-0.4,0-0.8,0.1-1.2,0.3c-0.3,0.2-0.6,0.4-0.8,0.8c-0.2,0.4-0.4,0.7-0.5,1.1 s-0.2,0.9-0.2,1.3V428.9z" class="st14"/><path d="M176.8,421.7v2.3h1.8v1.3h-1.8v5.9c0,0.2,0,0.4,0.1,0.6c0.1,0.1,0.1,0.3,0.2,0.3s0.2,0.1,0.3,0.2 c0.1,0,0.3,0,0.4,0s0.3,0,0.4,0s0.3,0,0.3-0.1v1.3c-0.1,0-0.3,0.1-0.5,0.1s-0.5,0.1-0.7,0.1c-0.3,0-0.6,0-0.8-0.1 c-0.3-0.1-0.5-0.2-0.7-0.4s-0.4-0.5-0.5-0.8s-0.2-0.7-0.2-1.2v-5.9h-1.7V424h1.7v-2.3H176.8z" class="st14"/><path d="M186.4,433.5c-0.1-0.1-0.1-0.3-0.1-0.4c0-0.1-0.1-0.4-0.1-0.6c-0.2,0.2-0.3,0.3-0.5,0.5s-0.4,0.3-0.6,0.4 c-0.2,0.1-0.5,0.2-0.7,0.3c-0.3,0.1-0.5,0.1-0.8,0.1c-0.5,0-0.9-0.1-1.3-0.2s-0.7-0.3-1-0.6s-0.5-0.5-0.6-0.9 c-0.2-0.3-0.2-0.7-0.2-1.1c0-0.5,0.1-1,0.3-1.3c0.2-0.4,0.5-0.7,0.9-1s0.8-0.5,1.3-0.6s1.1-0.2,1.8-0.2h1.6v-0.7 c0-0.6-0.2-1-0.5-1.4c-0.3-0.3-0.8-0.5-1.5-0.5c-0.3,0-0.6,0-0.8,0.1s-0.5,0.2-0.6,0.3c-0.2,0.1-0.3,0.3-0.4,0.5 s-0.1,0.4-0.1,0.6h-1.6c0-0.3,0.1-0.7,0.3-1c0.2-0.3,0.4-0.6,0.8-0.9c0.3-0.3,0.7-0.5,1.2-0.7s1-0.2,1.6-0.2c0.5,0,1,0.1,1.4,0.2 s0.8,0.3,1.1,0.6c0.3,0.3,0.6,0.6,0.7,1s0.3,0.9,0.3,1.4v4.4c0,0.3,0,0.7,0.1,1s0.1,0.7,0.3,0.9v0.1L186.4,433.5L186.4,433.5z M183.7,432.3c0.3,0,0.6,0,0.8-0.1s0.5-0.2,0.7-0.3s0.4-0.3,0.5-0.5s0.3-0.3,0.4-0.5v-2h-1.4c-0.9,0-1.6,0.1-2.2,0.4 c-0.5,0.3-0.8,0.7-0.8,1.3c0,0.2,0,0.4,0.1,0.6s0.2,0.4,0.3,0.5s0.3,0.3,0.6,0.3C183.1,432.3,183.4,432.3,183.7,432.3z" class="st14"/><path d="M192,433.5h-1.6V420h1.6V433.5z" class="st14"/><path d="M206.6,427.6h-5.5v4.5h6.4v1.4h-8.1v-12.8h8v1.4H201v4.1h5.5v1.4L206.6,427.6L206.6,427.6z" class="st14"/><path d="M213,432.4c0.3,0,0.6,0,0.8-0.1c0.2-0.1,0.5-0.2,0.7-0.4s0.4-0.4,0.5-0.6c0.1-0.2,0.2-0.5,0.2-0.7h1.5 c0,0.4-0.1,0.8-0.3,1.2c-0.2,0.4-0.5,0.7-0.8,1s-0.7,0.5-1.2,0.7c-0.4,0.2-0.9,0.3-1.4,0.3c-0.7,0-1.3-0.1-1.9-0.4 c-0.5-0.3-1-0.6-1.3-1s-0.6-0.9-0.8-1.5s-0.3-1.2-0.3-1.8v-0.4c0-0.6,0.1-1.2,0.3-1.8s0.4-1.1,0.8-1.5s0.8-0.8,1.3-1 c0.5-0.3,1.1-0.4,1.9-0.4c0.6,0,1.1,0.1,1.5,0.3s0.8,0.4,1.2,0.7c0.3,0.3,0.6,0.7,0.8,1.1c0.2,0.4,0.3,0.9,0.3,1.4h-1.5 c0-0.3-0.1-0.6-0.2-0.8c-0.1-0.3-0.3-0.5-0.5-0.7s-0.4-0.3-0.7-0.5s-0.6-0.2-0.9-0.2c-0.5,0-0.9,0.1-1.3,0.3s-0.6,0.5-0.8,0.8 c-0.2,0.3-0.3,0.7-0.4,1.1c-0.1,0.4-0.1,0.8-0.1,1.2v0.4c0,0.4,0,0.8,0.1,1.2s0.2,0.8,0.4,1.1c0.2,0.3,0.5,0.6,0.8,0.8 C212,432.4,212.5,432.4,213,432.4z" class="st14"/><path d="M220.4,433.5h-1.7V420h1.6v13.5H220.4z" class="st14"/><path d="M223,421.5c0-0.3,0.1-0.5,0.2-0.7s0.4-0.3,0.7-0.3s0.6,0.1,0.7,0.3s0.2,0.4,0.2,0.7s-0.1,0.5-0.2,0.7 s-0.4,0.3-0.7,0.3s-0.6-0.1-0.7-0.3S223,421.8,223,421.5z M224.7,433.5h-1.6V424h1.6V433.5z" class="st14"/><path d="M235.4,428.9c0,0.7-0.1,1.3-0.2,1.9c-0.2,0.6-0.4,1.1-0.7,1.5c-0.3,0.4-0.7,0.8-1.2,1s-1,0.4-1.6,0.4 s-1.1-0.1-1.6-0.3s-0.8-0.5-1.2-0.8v4.6h-1.6V424h1.5l0.1,1.1c0.3-0.4,0.7-0.7,1.2-0.9s1-0.3,1.6-0.3s1.1,0.1,1.6,0.4 s0.8,0.6,1.2,1c0.3,0.4,0.6,0.9,0.7,1.5C235.4,427.4,235.4,428.1,235.4,428.9L235.4,428.9z M233.7,428.7c0-0.5,0-0.9-0.1-1.3 s-0.3-0.8-0.5-1.1s-0.5-0.6-0.8-0.8s-0.7-0.3-1.2-0.3c-0.3,0-0.5,0-0.8,0.1s-0.4,0.2-0.6,0.3s-0.3,0.3-0.5,0.4 c-0.1,0.2-0.3,0.3-0.4,0.5v4.5c0.1,0.2,0.2,0.4,0.4,0.5c0.1,0.2,0.3,0.3,0.5,0.4s0.4,0.2,0.6,0.3s0.5,0.1,0.8,0.1 c0.4,0,0.8-0.1,1.1-0.3c0.3-0.2,0.6-0.4,0.8-0.8c0.2-0.4,0.4-0.7,0.5-1.1s0.1-0.9,0.1-1.3v-0.1L233.7,428.7L233.7,428.7z" class="st14"/><path d="M243,431c0-0.2,0-0.3-0.1-0.5s-0.2-0.3-0.3-0.4c-0.2-0.1-0.4-0.3-0.7-0.4s-0.7-0.2-1.1-0.3 c-0.5-0.1-1-0.2-1.4-0.4s-0.8-0.3-1.1-0.5c-0.3-0.2-0.5-0.5-0.7-0.8s-0.2-0.6-0.2-1s0.1-0.7,0.2-1.1s0.4-0.6,0.7-0.9 c0.3-0.3,0.7-0.5,1.1-0.6c0.4-0.2,0.9-0.2,1.5-0.2s1.1,0.1,1.5,0.2c0.4,0.2,0.8,0.4,1.1,0.6c0.3,0.2,0.6,0.6,0.7,0.9 c0.2,0.4,0.2,0.7,0.2,1.2h-1.6c0-0.2,0-0.4-0.1-0.6c-0.1-0.2-0.2-0.4-0.4-0.5c-0.2-0.1-0.4-0.3-0.6-0.4s-0.5-0.1-0.9-0.1 c-0.3,0-0.6,0-0.9,0.1c-0.2,0.1-0.4,0.2-0.6,0.3s-0.3,0.3-0.3,0.4c-0.1,0.2-0.1,0.3-0.1,0.5s0,0.3,0.1,0.5s0.2,0.3,0.3,0.4 c0.2,0.1,0.4,0.2,0.7,0.3c0.3,0.1,0.7,0.2,1.1,0.3c0.6,0.1,1.1,0.3,1.5,0.5s0.8,0.4,1.1,0.6c0.3,0.2,0.5,0.5,0.6,0.8 s0.2,0.6,0.2,1s-0.1,0.8-0.3,1.1s-0.4,0.6-0.7,0.9c-0.3,0.3-0.7,0.4-1.2,0.6c-0.5,0.1-1,0.2-1.5,0.2c-0.6,0-1.2-0.1-1.7-0.3 s-0.9-0.4-1.2-0.7c-0.3-0.3-0.6-0.6-0.7-1s-0.3-0.8-0.3-1.1h1.6c0,0.3,0.1,0.6,0.2,0.8s0.3,0.4,0.5,0.5s0.5,0.2,0.7,0.3 s0.5,0.1,0.8,0.1s0.6,0,0.9-0.1s0.5-0.2,0.6-0.3s0.3-0.3,0.4-0.4C242.9,431.4,243,431.2,243,431z" class="st14"/><path d="M250.7,433.7c-0.7,0-1.3-0.1-1.8-0.3s-1-0.5-1.4-1c-0.4-0.4-0.7-0.9-0.9-1.5s-0.3-1.2-0.3-1.8v-0.4 c0-0.8,0.1-1.5,0.3-2.1s0.5-1.1,0.9-1.5s0.8-0.7,1.3-1c0.5-0.2,1-0.3,1.6-0.3c0.7,0,1.3,0.1,1.8,0.4c0.5,0.2,0.9,0.6,1.2,1 c0.3,0.4,0.6,0.9,0.7,1.5s0.2,1.2,0.2,1.9v0.7h-6.4c0,0.4,0.1,0.8,0.2,1.2s0.3,0.7,0.6,1s0.5,0.5,0.9,0.7s0.7,0.2,1.2,0.2 c0.6,0,1.1-0.1,1.5-0.4c0.4-0.3,0.7-0.5,1-0.9l1,0.8c-0.2,0.2-0.3,0.5-0.6,0.7c-0.2,0.2-0.5,0.4-0.8,0.6c-0.3,0.2-0.6,0.3-1,0.4 C251.5,433.7,251.1,433.7,250.7,433.7z M250.4,425.2c-0.3,0-0.6,0.1-0.9,0.2s-0.5,0.3-0.7,0.5s-0.4,0.5-0.5,0.9s-0.2,0.7-0.3,1.2 h4.8v-0.1c0-0.3-0.1-0.6-0.2-0.9c-0.1-0.3-0.2-0.6-0.4-0.8c-0.2-0.2-0.4-0.4-0.7-0.6S250.9,425.2,250.4,425.2z" class="st14"/></g><g class="st24"><path d="M142,574.3v-10h2.8c0.7,0,1.3,0.1,1.8,0.3s1,0.5,1.4,0.9s0.7,0.9,0.9,1.5s0.3,1.2,0.3,1.9v0.6 c0,0.7-0.1,1.4-0.3,1.9s-0.5,1.1-0.9,1.5s-0.9,0.7-1.4,0.9c-0.6,0.2-1.2,0.3-1.9,0.3H142L142,574.3L142,574.3z M143.4,565.4v7.8 h1.4c0.5,0,1-0.1,1.4-0.3s0.7-0.4,1-0.7s0.5-0.7,0.6-1.1c0.1-0.4,0.2-0.9,0.2-1.5V569c0-0.6-0.1-1.1-0.2-1.5s-0.3-0.8-0.6-1.1 c-0.3-0.3-0.6-0.5-1-0.7s-0.8-0.2-1.3-0.2L143.4,565.4L143.4,565.4z" class="st14"/><path d="M151,564.9c0-0.2,0.1-0.4,0.2-0.5s0.3-0.2,0.6-0.2s0.4,0.1,0.6,0.2c0.1,0.1,0.2,0.3,0.2,0.5 s-0.1,0.4-0.2,0.5s-0.3,0.2-0.6,0.2s-0.4-0.1-0.6-0.2C151.1,565.3,151,565.1,151,564.9z M152.4,574.3h-1.3v-7.4h1.3V574.3z" class="st14"/><path d="M159,574.3c0-0.1-0.1-0.2-0.1-0.3s0-0.3-0.1-0.4c-0.1,0.1-0.3,0.2-0.4,0.4c-0.1,0.1-0.3,0.2-0.5,0.3 s-0.4,0.2-0.6,0.2s-0.4,0.1-0.6,0.1c-0.4,0-0.7-0.1-1-0.2s-0.6-0.3-0.8-0.5c-0.2-0.2-0.4-0.4-0.5-0.7s-0.2-0.6-0.2-0.9 c0-0.4,0.1-0.7,0.2-1c0.2-0.3,0.4-0.6,0.7-0.8c0.3-0.2,0.6-0.4,1-0.5s0.9-0.2,1.4-0.2h1.3v-0.6c0-0.4-0.1-0.8-0.4-1.1 s-0.7-0.4-1.2-0.4c-0.2,0-0.5,0-0.6,0.1c-0.2,0.1-0.4,0.1-0.5,0.3c-0.1,0.1-0.2,0.2-0.3,0.4c-0.1,0.1-0.1,0.3-0.1,0.4h-1.3 c0-0.3,0.1-0.5,0.2-0.8s0.3-0.5,0.6-0.7c0.3-0.2,0.6-0.4,0.9-0.5c0.4-0.1,0.8-0.2,1.2-0.2c0.4,0,0.8,0.1,1.1,0.2 c0.3,0.1,0.6,0.3,0.9,0.5c0.2,0.2,0.4,0.5,0.6,0.8s0.2,0.7,0.2,1.1v3.4c0,0.3,0,0.5,0.1,0.8c0,0.3,0.1,0.5,0.2,0.7v0.1L159,574.3 L159,574.3z M156.9,573.3c0.2,0,0.4,0,0.6-0.1s0.4-0.1,0.5-0.2c0.2-0.1,0.3-0.2,0.4-0.4c0.1-0.1,0.2-0.3,0.3-0.4v-1.5h-1 c-0.7,0-1.3,0.1-1.7,0.3c-0.4,0.2-0.6,0.6-0.6,1c0,0.2,0,0.3,0.1,0.5s0.1,0.3,0.3,0.4c0.1,0.1,0.3,0.2,0.4,0.3 C156.5,573.3,156.7,573.3,156.9,573.3z" class="st14"/><path d="M161.7,570.5c0-0.6,0.1-1.1,0.2-1.5c0.1-0.5,0.3-0.9,0.6-1.2c0.3-0.3,0.6-0.6,0.9-0.8 c0.4-0.2,0.8-0.3,1.2-0.3c0.5,0,0.9,0.1,1.2,0.2c0.3,0.2,0.6,0.4,0.9,0.7l0.1-0.8h1.2v7.2c0,0.5-0.1,0.9-0.2,1.3 c-0.2,0.4-0.4,0.7-0.6,1c-0.3,0.3-0.6,0.5-1,0.6s-0.8,0.2-1.3,0.2c-0.2,0-0.4,0-0.7-0.1c-0.2,0-0.5-0.1-0.8-0.2 c-0.3-0.1-0.5-0.2-0.7-0.4s-0.4-0.4-0.6-0.6l0.7-0.8c0.2,0.2,0.3,0.4,0.5,0.5s0.3,0.2,0.5,0.3s0.3,0.1,0.5,0.2 c0.2,0,0.3,0.1,0.5,0.1c0.3,0,0.6,0,0.8-0.1c0.2-0.1,0.4-0.2,0.6-0.4s0.3-0.4,0.4-0.6c0.1-0.2,0.1-0.5,0.1-0.9v-0.6 c-0.2,0.3-0.5,0.5-0.9,0.6c-0.3,0.2-0.7,0.2-1.2,0.2c-0.4,0-0.8-0.1-1.2-0.3c-0.4-0.2-0.7-0.4-0.9-0.8c-0.3-0.3-0.4-0.7-0.6-1.2 C161.8,571.5,161.7,571,161.7,570.5L161.7,570.5z M163,570.7c0,0.4,0,0.7,0.1,1s0.2,0.6,0.3,0.9s0.4,0.4,0.6,0.6s0.5,0.2,0.9,0.2 c0.2,0,0.4,0,0.6-0.1s0.3-0.1,0.5-0.2s0.3-0.2,0.4-0.3s0.2-0.3,0.3-0.4V569c-0.1-0.2-0.2-0.3-0.3-0.4c-0.1-0.1-0.2-0.2-0.4-0.3 s-0.3-0.2-0.5-0.2c-0.2-0.1-0.4-0.1-0.6-0.1c-0.3,0-0.6,0.1-0.9,0.2c-0.2,0.1-0.4,0.3-0.6,0.6c-0.2,0.2-0.3,0.5-0.4,0.9 c-0.1,0.3-0.1,0.7-0.1,1l0,0H163z" class="st14"/><path d="M173.5,568c-0.1,0-0.2,0-0.3,0c-0.1,0-0.2,0-0.3,0c-0.4,0-0.8,0.1-1.1,0.3c-0.3,0.2-0.5,0.4-0.6,0.8v5.2 h-1.3v-7.4h1.2v0.9c0.2-0.3,0.4-0.5,0.7-0.7s0.6-0.3,1-0.3c0.1,0,0.2,0,0.3,0c0.1,0,0.2,0,0.2,0.1v1.1L173.5,568L173.5,568z" class="st14"/><path d="M178.9,574.3c0-0.1-0.1-0.2-0.1-0.3s0-0.3-0.1-0.4c-0.1,0.1-0.3,0.2-0.4,0.4c-0.1,0.1-0.3,0.2-0.5,0.3 s-0.4,0.2-0.6,0.2s-0.4,0.1-0.6,0.1c-0.4,0-0.7-0.1-1-0.2s-0.6-0.3-0.8-0.5c-0.2-0.2-0.4-0.4-0.5-0.7s-0.2-0.6-0.2-0.9 c0-0.4,0.1-0.7,0.2-1c0.2-0.3,0.4-0.6,0.7-0.8c0.3-0.2,0.6-0.4,1-0.5s0.9-0.2,1.4-0.2h1.3v-0.6c0-0.4-0.1-0.8-0.4-1.1 s-0.7-0.4-1.2-0.4c-0.2,0-0.5,0-0.6,0.1c-0.2,0.1-0.4,0.1-0.5,0.3c-0.1,0.1-0.2,0.2-0.3,0.4c-0.1,0.1-0.1,0.3-0.1,0.4h-1.3 c0-0.3,0.1-0.5,0.2-0.8s0.3-0.5,0.6-0.7c0.3-0.2,0.6-0.4,0.9-0.5c0.4-0.1,0.8-0.2,1.2-0.2c0.4,0,0.8,0.1,1.1,0.2 c0.3,0.1,0.6,0.3,0.9,0.5c0.2,0.2,0.4,0.5,0.6,0.8s0.2,0.7,0.2,1.1v3.4c0,0.3,0,0.5,0.1,0.8c0,0.3,0.1,0.5,0.2,0.7v0.1 L178.9,574.3L178.9,574.3z M176.8,573.3c0.2,0,0.4,0,0.6-0.1s0.4-0.1,0.5-0.2c0.2-0.1,0.3-0.2,0.4-0.4c0.1-0.1,0.2-0.3,0.3-0.4 v-1.5h-0.9c-0.7,0-1.3,0.1-1.7,0.3c-0.4,0.2-0.6,0.6-0.6,1c0,0.2,0,0.3,0.1,0.5s0.1,0.3,0.3,0.4c0.1,0.1,0.3,0.2,0.4,0.3 C176.4,573.3,176.6,573.3,176.8,573.3z" class="st14"/><path d="M183.2,566.9v0.8c0.3-0.3,0.6-0.5,0.9-0.7s0.8-0.3,1.3-0.3s0.9,0.1,1.3,0.3s0.6,0.5,0.8,0.9 c0.2-0.4,0.6-0.6,1-0.9c0.4-0.2,0.9-0.3,1.4-0.3c0.4,0,0.7,0.1,1.1,0.2c0.3,0.1,0.6,0.3,0.8,0.5s0.4,0.5,0.5,0.8s0.2,0.7,0.2,1.2 v4.9h-1.3v-4.9c0-0.3,0-0.6-0.1-0.8s-0.2-0.4-0.3-0.5s-0.3-0.2-0.5-0.3c-0.2,0-0.4-0.1-0.6-0.1c-0.3,0-0.5,0-0.7,0.1 s-0.4,0.2-0.5,0.3s-0.3,0.3-0.3,0.5c-0.1,0.2-0.1,0.4-0.2,0.6v4.9h-1.3v-4.9c0-0.3,0-0.5-0.1-0.7s-0.2-0.4-0.3-0.5 s-0.3-0.2-0.5-0.3s-0.4-0.1-0.7-0.1c-0.5,0-0.8,0.1-1.1,0.3s-0.5,0.5-0.6,0.8v5.4h-1.3v-7.4h1.1V566.9z" class="st14"/><path d="M198.9,566.9v0.9c0.3-0.3,0.6-0.6,1-0.8s0.8-0.3,1.3-0.3c0.4,0,0.7,0,1,0.1s0.5,0.3,0.7,0.5 s0.4,0.5,0.5,0.8s0.2,0.8,0.2,1.2v4.8h-1.3v-4.9c0-0.3,0-0.5-0.1-0.7s-0.2-0.4-0.3-0.5c-0.1-0.1-0.3-0.2-0.5-0.3 s-0.4-0.1-0.6-0.1c-0.4,0-0.8,0.1-1.1,0.3c-0.3,0.2-0.6,0.5-0.7,0.9v5.3h-1.3v-7.4h1.2V566.9z" class="st14"/><path d="M205.1,570.5c0-0.5,0.1-1,0.2-1.5c0.2-0.5,0.4-0.9,0.7-1.2c0.3-0.3,0.6-0.6,1.1-0.8 c0.4-0.2,0.9-0.3,1.4-0.3s1,0.1,1.4,0.3s0.8,0.5,1.1,0.8c0.3,0.3,0.5,0.7,0.7,1.2s0.2,1,0.2,1.5v0.2c0,0.5-0.1,1-0.2,1.5 c-0.2,0.5-0.4,0.9-0.7,1.2c-0.3,0.3-0.6,0.6-1.1,0.8c-0.4,0.2-0.9,0.3-1.4,0.3s-1-0.1-1.4-0.3s-0.8-0.5-1.1-0.8 c-0.3-0.3-0.5-0.7-0.7-1.2s-0.2-1-0.2-1.5V570.5z M206.4,570.7c0,0.4,0,0.7,0.1,1s0.2,0.6,0.4,0.9c0.2,0.2,0.4,0.4,0.7,0.6 c0.3,0.1,0.6,0.2,0.9,0.2s0.7-0.1,0.9-0.2c0.3-0.1,0.5-0.3,0.7-0.6c0.2-0.2,0.3-0.5,0.4-0.9s0.1-0.7,0.1-1v-0.2 c0-0.4,0-0.7-0.1-1s-0.2-0.6-0.4-0.9c-0.2-0.2-0.4-0.4-0.7-0.6c-0.3-0.1-0.6-0.2-0.9-0.2s-0.6,0.1-0.9,0.2 c-0.3,0.1-0.5,0.3-0.7,0.6c-0.2,0.2-0.3,0.5-0.4,0.9c-0.1,0.3-0.1,0.7-0.1,1V570.7z" class="st14"/><path d="M215.1,565.1v1.8h1.4v1h-1.4v4.6c0,0.2,0,0.3,0.1,0.5c0,0.1,0.1,0.2,0.2,0.3s0.2,0.1,0.3,0.1 c0.1,0,0.2,0,0.3,0c0.1,0,0.2,0,0.3,0c0.1,0,0.2,0,0.3-0.1v1c-0.1,0-0.2,0.1-0.4,0.1c-0.2,0-0.4,0-0.6,0s-0.5,0-0.7-0.1 s-0.4-0.2-0.5-0.3c-0.2-0.2-0.3-0.4-0.4-0.6c-0.1-0.3-0.1-0.6-0.1-0.9v-4.6h-1.3v-1h1.3v-1.8H215.1z" class="st14"/><path d="M223.2,565.1v1.8h1.4v1h-1.4v4.6c0,0.2,0,0.3,0.1,0.5c0,0.1,0.1,0.2,0.2,0.3s0.2,0.1,0.3,0.1 c0.1,0,0.2,0,0.3,0c0.1,0,0.2,0,0.3,0c0.1,0,0.2,0,0.3-0.1v1c-0.1,0-0.2,0.1-0.4,0.1c-0.2,0-0.4,0-0.6,0s-0.5,0-0.7-0.1 s-0.4-0.2-0.5-0.3c-0.2-0.2-0.3-0.4-0.4-0.6c-0.1-0.3-0.1-0.6-0.1-0.9v-4.6h-1.3v-1h1.3v-1.8H223.2z" class="st14"/><path d="M225.6,570.5c0-0.5,0.1-1,0.2-1.5c0.2-0.5,0.4-0.9,0.7-1.2c0.3-0.3,0.6-0.6,1.1-0.8 c0.4-0.2,0.9-0.3,1.4-0.3s1,0.1,1.4,0.3s0.8,0.5,1.1,0.8c0.3,0.3,0.5,0.7,0.7,1.2s0.2,1,0.2,1.5v0.2c0,0.5-0.1,1-0.2,1.5 c-0.2,0.5-0.4,0.9-0.7,1.2c-0.3,0.3-0.6,0.6-1.1,0.8c-0.4,0.2-0.9,0.3-1.4,0.3s-1-0.1-1.4-0.3s-0.8-0.5-1.1-0.8 c-0.3-0.3-0.5-0.7-0.7-1.2s-0.2-1-0.2-1.5V570.5z M226.8,570.7c0,0.4,0,0.7,0.1,1s0.2,0.6,0.4,0.9c0.2,0.2,0.4,0.4,0.7,0.6 c0.3,0.1,0.6,0.2,0.9,0.2s0.7-0.1,0.9-0.2c0.3-0.1,0.5-0.3,0.7-0.6c0.2-0.2,0.3-0.5,0.4-0.9s0.1-0.7,0.1-1v-0.2 c0-0.4,0-0.7-0.1-1s-0.2-0.6-0.4-0.9c-0.2-0.2-0.4-0.4-0.7-0.6c-0.3-0.1-0.6-0.2-0.9-0.2s-0.6,0.1-0.9,0.2 c-0.3,0.1-0.5,0.3-0.7,0.6c-0.2,0.2-0.3,0.5-0.4,0.9c-0.1,0.3-0.1,0.7-0.1,1V570.7z" class="st14"/><path d="M241.7,572.3c0-0.1,0-0.3-0.1-0.4c0-0.1-0.1-0.2-0.2-0.3s-0.3-0.2-0.5-0.3s-0.5-0.2-0.9-0.3 s-0.8-0.2-1.1-0.3s-0.6-0.3-0.8-0.4c-0.2-0.2-0.4-0.4-0.5-0.6s-0.2-0.5-0.2-0.8s0.1-0.6,0.2-0.8c0.1-0.3,0.3-0.5,0.5-0.7 s0.5-0.4,0.9-0.5c0.3-0.1,0.7-0.2,1.1-0.2s0.8,0.1,1.2,0.2c0.3,0.1,0.6,0.3,0.9,0.5c0.2,0.2,0.4,0.5,0.6,0.7 c0.1,0.3,0.2,0.6,0.2,0.9h-1.3c0-0.2,0-0.3-0.1-0.5s-0.2-0.3-0.3-0.4c-0.1-0.1-0.3-0.2-0.5-0.3s-0.4-0.1-0.7-0.1 c-0.3,0-0.5,0-0.7,0.1s-0.3,0.1-0.5,0.2c-0.1,0.1-0.2,0.2-0.3,0.3c-0.1,0.1-0.1,0.3-0.1,0.4s0,0.3,0.1,0.4c0,0.1,0.1,0.2,0.3,0.3 c0.1,0.1,0.3,0.2,0.5,0.2c0.2,0.1,0.5,0.2,0.9,0.2c0.5,0.1,0.8,0.2,1.2,0.4c0.3,0.1,0.6,0.3,0.8,0.5c0.2,0.2,0.4,0.4,0.5,0.6 c0.1,0.2,0.2,0.5,0.2,0.8s-0.1,0.6-0.2,0.9c-0.1,0.3-0.3,0.5-0.6,0.7c-0.2,0.2-0.6,0.3-0.9,0.4c-0.4,0.1-0.7,0.2-1.2,0.2 s-0.9-0.1-1.3-0.2s-0.7-0.3-0.9-0.5c-0.3-0.2-0.4-0.5-0.6-0.8c-0.1-0.3-0.2-0.6-0.2-0.9h1.3c0,0.3,0.1,0.5,0.2,0.7 s0.3,0.3,0.4,0.4c0.2,0.1,0.4,0.2,0.6,0.2s0.4,0.1,0.6,0.1c0.3,0,0.5,0,0.7-0.1s0.4-0.1,0.5-0.2c0.1-0.1,0.2-0.2,0.3-0.3 C241.6,572.6,241.7,572.5,241.7,572.3z" class="st14"/><path d="M247.5,573.4c0.2,0,0.4,0,0.6-0.1s0.4-0.2,0.5-0.3s0.3-0.3,0.4-0.5s0.2-0.4,0.2-0.6h1.2 c0,0.3-0.1,0.6-0.3,0.9c-0.2,0.3-0.4,0.6-0.6,0.8c-0.3,0.2-0.6,0.4-0.9,0.5s-0.7,0.2-1.1,0.2c-0.6,0-1-0.1-1.5-0.3 c-0.4-0.2-0.8-0.5-1-0.8s-0.5-0.7-0.6-1.2c-0.1-0.4-0.2-0.9-0.2-1.4v-0.3c0-0.5,0.1-1,0.2-1.4s0.3-0.8,0.6-1.2s0.6-0.6,1-0.8 s0.9-0.3,1.4-0.3c0.4,0,0.8,0.1,1.2,0.2c0.4,0.1,0.7,0.3,0.9,0.6c0.3,0.2,0.5,0.5,0.6,0.9c0.1,0.3,0.2,0.7,0.2,1.1h-1.2 c0-0.2-0.1-0.4-0.2-0.6c-0.1-0.2-0.2-0.4-0.4-0.5c-0.2-0.1-0.3-0.3-0.5-0.4c-0.2-0.1-0.4-0.1-0.7-0.1c-0.4,0-0.7,0.1-1,0.2 c-0.3,0.2-0.5,0.4-0.6,0.6c-0.2,0.3-0.3,0.5-0.3,0.9c-0.1,0.3-0.1,0.6-0.1,1v0.3c0,0.3,0,0.7,0.1,1s0.2,0.6,0.3,0.9 c0.2,0.3,0.4,0.5,0.6,0.6S247.1,573.4,247.5,573.4z" class="st14"/><path d="M256.5,574.3c0-0.1-0.1-0.2-0.1-0.3s0-0.3-0.1-0.4c-0.1,0.1-0.3,0.2-0.4,0.4c-0.1,0.1-0.3,0.2-0.5,0.3 s-0.4,0.2-0.6,0.2s-0.4,0.1-0.6,0.1c-0.4,0-0.7-0.1-1-0.2s-0.6-0.3-0.8-0.5c-0.2-0.2-0.4-0.4-0.5-0.7s-0.2-0.6-0.2-0.9 c0-0.4,0.1-0.7,0.2-1c0.2-0.3,0.4-0.6,0.7-0.8c0.3-0.2,0.6-0.4,1-0.5s0.9-0.2,1.4-0.2h1.3v-0.6c0-0.4-0.1-0.8-0.4-1.1 c-0.3-0.3-0.7-0.4-1.2-0.4c-0.2,0-0.5,0-0.6,0.1c-0.2,0.1-0.4,0.1-0.5,0.3c-0.1,0.1-0.2,0.2-0.3,0.4c-0.1,0.1-0.1,0.3-0.1,0.4 h-1.3c0-0.3,0.1-0.5,0.2-0.8s0.3-0.5,0.6-0.7c0.3-0.2,0.6-0.4,0.9-0.5c0.4-0.1,0.8-0.2,1.2-0.2c0.4,0,0.8,0.1,1.1,0.2 c0.3,0.1,0.6,0.3,0.9,0.5c0.2,0.2,0.4,0.5,0.6,0.8s0.2,0.7,0.2,1.1v3.4c0,0.3,0,0.5,0.1,0.8c0,0.3,0.1,0.5,0.2,0.7v0.1 L256.5,574.3L256.5,574.3z M254.4,573.3c0.2,0,0.4,0,0.6-0.1s0.4-0.1,0.5-0.2c0.2-0.1,0.3-0.2,0.4-0.4c0.1-0.1,0.2-0.3,0.3-0.4 v-1.5h-1.1c-0.7,0-1.3,0.1-1.7,0.3c-0.4,0.2-0.6,0.6-0.6,1c0,0.2,0,0.3,0.1,0.5s0.1,0.3,0.3,0.4c0.1,0.1,0.3,0.2,0.4,0.3 C253.9,573.3,254.1,573.3,254.4,573.3z" class="st14"/><path d="M260.9,574.3h-1.3v-10.5h1.3V574.3z" class="st14"/><path d="M266,574.4c-0.5,0-1-0.1-1.4-0.3s-0.8-0.4-1.1-0.7c-0.3-0.3-0.5-0.7-0.7-1.1c-0.2-0.4-0.2-0.9-0.2-1.4v-0.3 c0-0.6,0.1-1.1,0.3-1.6c0.2-0.5,0.4-0.9,0.7-1.2s0.6-0.6,1-0.7c0.4-0.2,0.8-0.3,1.2-0.3c0.5,0,1,0.1,1.4,0.3s0.7,0.4,0.9,0.8 c0.2,0.3,0.4,0.7,0.5,1.1c0.1,0.4,0.2,0.9,0.2,1.4v0.6h-5c0,0.3,0.1,0.7,0.2,1s0.2,0.6,0.4,0.8c0.2,0.2,0.4,0.4,0.7,0.5 s0.6,0.2,0.9,0.2c0.4,0,0.8-0.1,1.1-0.3c0.3-0.2,0.6-0.4,0.8-0.7l0.8,0.6c-0.1,0.2-0.3,0.4-0.4,0.5c-0.2,0.2-0.4,0.3-0.6,0.5 c-0.2,0.1-0.5,0.2-0.8,0.3C266.7,574.4,266.3,574.4,266,574.4z M265.8,567.8c-0.3,0-0.5,0-0.7,0.1s-0.4,0.2-0.6,0.4 s-0.3,0.4-0.4,0.7s-0.2,0.6-0.2,0.9h3.7v-0.1c0-0.2-0.1-0.5-0.1-0.7c-0.1-0.2-0.2-0.5-0.3-0.6c-0.1-0.2-0.3-0.3-0.5-0.5 S266.1,567.8,265.8,567.8z" class="st14"/></g></g></g></svg>