<svg xmlns="http://www.w3.org/2000/svg" xmlns:xlink="http://www.w3.org/1999/xlink" width="128" height="155" version="1.1" viewBox="0 0 128 155"><title>Group 6</title><desc>Created with Sketch.</desc><defs><polygon id="path-1" points="5.704 .425 0 .425 0 6.132 5.704 6.132 5.704 .425"/><polygon id="path-3" points="6.344 .425 .641 .425 .641 6.132 6.344 6.132 6.344 .425"/><polygon id="path-5" points=".642 5.836 6.344 5.836 6.344 .136 .642 .136 .642 5.836"/></defs><g id="Profile" fill="none" fill-rule="evenodd" stroke="none" stroke-width="1"><g id="09_Profile_after" transform="translate(-648.000000, -169.000000)"><g id="Group-6" transform="translate(648.000000, 169.000000)"><polygon id="Fill-227" fill="#DA8233" points="30 38 97 38 97 2 30 2"/><polyline id="Fill-228" fill="#FDD835" points="30.156 1 65.029 72.653 26.427 94.486 0 37.769 30.156 1"/><polyline id="Fill-229" fill="#FFA000" points="23.591 9 56.703 77.542 34.186 90.279 6 30.448 23.591 9"/><polyline id="Fill-230" fill="#FDD835" points="96.861 0 63 72.215 101.953 93.414 127.613 36.271 96.861 0"/><polyline id="Fill-231" fill="#FFA000" points="103.15 8 71 77.076 93.722 89.444 121.088 29.158 103.15 8"/><g id="Group-3" transform="translate(13.000000, 50.000000)"><path id="Fill-162" fill="#039BE5" d="M104.670672,52.3357616 C104.670672,55.6476885 98.9111694,58.351337 98.2926822,61.4812058 C97.6546279,64.7063573 101.928741,69.4024366 100.698572,72.3698142 C99.4462843,75.3890869 93.0904132,75.6808904 91.2945032,78.3641212 C89.4841306,81.0686205 91.6339481,87.0501663 89.3420572,89.3429079 C87.0493156,91.6356495 81.0677697,89.4849814 78.3632705,91.2953539 C75.6800397,93.091264 75.3882362,99.447135 72.3689635,100.699423 C69.4024366,101.929591 64.7055066,97.6554787 61.4803551,98.2935329 C58.3504863,98.9120202 55.6476885,104.671523 52.3357616,104.671523 C49.0238347,104.671523 46.3201861,98.9120202 43.1903174,98.2935329 C39.9651658,97.6554787 35.2690866,101.929591 32.301709,100.699423 C29.2824363,99.447135 28.9906328,93.091264 26.307402,91.2953539 C23.6029027,89.4849814 17.6205061,91.6356495 15.3286152,89.3420572 C13.0358736,87.0501663 15.1856911,81.0677697 13.3753185,78.3632705 C11.5785577,75.6800397 5.22353744,75.3882362 3.97124964,72.3689635 C2.74108105,69.4024366 7.0160445,64.7055066 6.37799026,61.4803551 C5.75865227,58.351337 0,55.6476885 0,52.3357616 C0,49.0246854 5.75950301,46.3210369 6.37799026,43.1903174 C7.0160445,39.9651658 2.74108105,35.2690866 3.97210038,32.3008582 C5.22438818,29.2824363 11.5794085,28.9906328 13.3761692,26.3065513 C15.1865418,23.6029027 13.0358736,17.6213568 15.3286152,15.3277645 C17.6213568,13.0358736 23.6037535,15.1856911 26.307402,13.3753185 C28.9914835,11.5794085 29.283287,5.22353744 32.301709,3.97210038 C35.2699373,2.74108105 39.9651658,7.0160445 43.1903174,6.37799026 C46.3201861,5.75865227 49.0246854,0 52.3357616,0 C55.6476885,0 58.351337,5.75865227 61.4812058,6.37799026 C64.7063573,7.0160445 69.4024366,2.74108105 72.3698142,3.97210038 C75.3890869,5.22353744 75.6808904,11.5794085 78.3641212,13.3761692 C81.0686205,15.1865418 87.0501663,13.0358736 89.3429079,15.3286152 C91.6347988,17.6222076 89.4849814,23.6037535 91.2953539,26.307402 C93.091264,28.9914835 99.4462843,29.283287 100.698572,32.301709 C101.928741,35.2699373 97.6546279,39.9660166 98.2926822,43.1903174 C98.9111694,46.3210369 104.670672,49.0246854 104.670672,52.3357616"/><path id="Fill-163" fill="#FFFFFE" d="M92.1911821,52.4761335 C92.1911821,74.4107371 74.4090356,92.1903314 52.4761335,92.1903314 C30.5432315,92.1903314 12.7610849,74.4107371 12.7610849,52.4761335 C12.7610849,30.54153 30.5432315,12.7610849 52.4761335,12.7610849 C74.4090356,12.7610849 92.1911821,30.54153 92.1911821,52.4761335"/><path id="Fill-164" fill="#000" d="M90.4395105,52.0260926 C90.4395105,72.7730645 73.622102,89.5887715 52.8768316,89.5887715 C32.1290089,89.5887715 15.3133019,72.7730645 15.3133019,52.0260926 C15.3133019,31.2816729 32.1290089,14.4625629 52.8768316,14.4625629 C73.622102,14.4625629 90.4395105,31.2816729 90.4395105,52.0260926 L41.2734375,8.11328125"/></g><g id="Page-1" transform="translate(43.000000, 77.000000)"><path id="Fill-1" fill="#010202" d="M44.1893691,24.1578065 C44.1893691,35.9695112 34.6157144,45.5431659 22.8040096,45.5431659 C10.9923049,45.5431659 1.41865018,35.9695112 1.41865018,24.1578065 C1.41865018,12.3474557 10.9923049,2.77244701 22.8040096,2.77244701 C34.6157144,2.77244701 44.1893691,12.3474557 44.1893691,24.1578065"/><g id="Group-5" transform="translate(0.000000, 0.928662)"><mask id="mask-2" fill="#fff"><use xlink:href="#path-1"/></mask><polygon id="Fill-3" fill="#FFF" points="1.425 6.132 1.425 1.851 5.704 1.851 5.704 .425 1.425 .425 0 .425 0 1.851 0 6.132" mask="url(#mask-2)"/></g><g id="Group-8" transform="translate(39.264034, 0.928662)"><mask id="mask-4" fill="#fff"><use xlink:href="#path-3"/></mask><polygon id="Fill-6" fill="#FFF" points=".641 1.851 4.918 1.851 4.918 6.132 6.344 6.132 6.344 1.851 6.344 .425 4.918 .425 .641 .425" mask="url(#mask-4)"/></g><g id="Group-11" transform="translate(39.264034, 41.126623)"><mask id="mask-6" fill="#fff"><use xlink:href="#path-5"/></mask><polygon id="Fill-9" fill="#FFF" points="4.919 .136 4.919 4.41 .642 4.41 .642 5.836 4.919 5.836 6.344 5.836 6.344 4.41 6.344 .136" mask="url(#mask-6)"/></g><polygon id="Fill-12" fill="#FFF" points="5.704 45.537 1.426 45.537 1.426 41.262 0 41.262 0 45.537 0 46.962 1.426 46.962 5.704 46.962"/><path id="Fill-14" fill="#FDD835" d="M35.2975546,15.5826767 C35.4884591,15.1737892 35.5981276,14.7202219 35.5981276,14.239576 C35.5981276,12.4781102 34.1683752,11.0483577 32.4055554,11.0483577 C31.8924151,11.0483577 31.4104152,11.1729195 30.9812187,11.3881947 C28.6226688,9.87179062 25.8200291,8.98767288 22.8075299,8.98767288 C14.455122,8.98767288 7.68275301,15.7600419 7.68275301,24.1124497 C7.68275301,26.8961344 8.43824719,29.5011 9.74885358,31.7418578 C8.79839316,29.8531224 8.26088206,27.7206791 8.26088206,25.4623202 C8.26088206,17.734075 14.5255265,11.4694306 22.2537716,11.4694306 C24.8370743,11.4694306 27.2565512,12.1721215 29.3334832,13.3933683 C29.2590169,13.6641548 29.2156911,13.9471266 29.2156911,14.239576 C29.2156911,16.0023957 30.6440896,17.4307942 32.4055554,17.4307942 C32.8117351,17.4307942 33.1976057,17.3522662 33.5536899,17.2141651 C35.2461052,19.5280352 36.2453072,22.3780626 36.2453072,25.4623202 C36.2453072,31.6430208 32.2376678,36.8827385 26.679776,38.7362717 C33.1569878,37.0262553 37.9336607,31.1271726 37.9336607,24.1124497 C37.9336607,20.9483101 36.9601834,18.0116311 35.2975546,15.5826767"/></g></g></g></g></svg>